<?xml version="1.0" encoding="UTF-8" standalone="no"?>
<!-- Created with Inkscape (http://www.inkscape.org/) -->

<svg
   xmlns:dc="http://purl.org/dc/elements/1.1/"
   xmlns:cc="http://creativecommons.org/ns#"
   xmlns:rdf="http://www.w3.org/1999/02/22-rdf-syntax-ns#"
   xmlns:svg="http://www.w3.org/2000/svg"
   xmlns="http://www.w3.org/2000/svg"
   xmlns:sodipodi="http://sodipodi.sourceforge.net/DTD/sodipodi-0.dtd"
   xmlns:inkscape="http://www.inkscape.org/namespaces/inkscape"
   width="210mm"
   height="297mm"
   viewBox="0 0 210 297"
   version="1.1"
   id="svg9347"
   inkscape:version="0.92.3 (d244b95, 2018-08-02)"
   sodipodi:docname="Hands.svg">
  <defs
     id="defs9341" />
  <sodipodi:namedview
     id="base"
     pagecolor="#ffffff"
     bordercolor="#666666"
     borderopacity="1.0"
     inkscape:pageopacity="0.0"
     inkscape:pageshadow="2"
     inkscape:zoom="1.4"
     inkscape:cx="148.86073"
     inkscape:cy="700.80505"
     inkscape:document-units="mm"
     inkscape:current-layer="layer43"
     showgrid="false"
     inkscape:window-width="2560"
     inkscape:window-height="1385"
     inkscape:window-x="0"
     inkscape:window-y="27"
     inkscape:window-maximized="1"
     inkscape:measure-start="0,0"
     inkscape:measure-end="0,0" />
  <metadata
     id="metadata9344">
    <rdf:RDF>
      <cc:Work
         rdf:about="">
        <dc:format>image/svg+xml</dc:format>
        <dc:type
           rdf:resource="http://purl.org/dc/dcmitype/StillImage" />
        <dc:title></dc:title>
      </cc:Work>
    </rdf:RDF>
  </metadata>
  <g
     inkscape:groupmode="layer"
     id="layer41"
     inkscape:label="Layer 8"
     style="display:inline;opacity:1" />
  <g
     inkscape:groupmode="layer"
     id="layer42"
     inkscape:label="Layer 9"
     style="display:inline;opacity:1">
    <path
       style="opacity:1;fill:#b3b3b3;fill-opacity:1;stroke:none;stroke-width:0.99999994px;stroke-linecap:butt;stroke-linejoin:miter;stroke-opacity:1"
       d="m 107.96094,421.85547 v 29.8418 c 5.75365,0.71706 21.40042,2.65725 25.3164,2.92187 4.67196,0.31559 16.72984,2.08421 19.31836,3.03125 2.58852,0.947 4.67271,2.14542 5.36719,3.0293 0.69448,0.88392 0.44235,1.64231 1.51563,3.03125 1.07329,1.38897 1.07226,1.00976 1.07226,1.00976 0,0 -0.18992,1.70535 0.44141,2.65235 0.63135,0.94703 3.15693,2.84132 3.2832,3.47265 0.12627,0.63137 2.33594,2.39844 2.33594,2.39844 l 7.89258,5.11328 c 0,0 2.14727,3.59908 2.65234,4.04102 0.50508,0.44194 3.28258,2.52465 5.87109,2.20898 2.58852,-0.31559 3.78711,-2.14648 3.78711,-2.14648 0,0 2.7149,1.26305 5.42969,1.32617 2.71478,0.0631 5.30474,-2.77681 5.49414,-3.21875 0.18939,-0.44194 0,-0.56836 0,-0.56836 0,0 2.52413,1.26166 5.17578,1.07227 2.65165,-0.18936 3.97876,-1.13572 4.92578,-2.20899 0.94701,-1.07331 1.64063,-5.17773 1.64063,-5.17773 0,0 2.20938,0.3163 3.72461,0.12695 1.51523,-0.18935 3.2207,-1.64258 3.2207,-1.64258 l -8.96484,-17.23437 c 0,0 -11.7438,-5.30286 -12.94336,-5.68164 -1.19956,-0.37883 -28.53688,-10.79688 -30.11524,-10.79688 -1.38805,0 -44.77593,-13.08089 -56.4414,-16.60156 z"
       transform="scale(0.26458333)"
       id="path12183"
       inkscape:connector-curvature="0" />
  </g>
  <g
     inkscape:groupmode="layer"
     id="layer43"
     inkscape:label="Layer 10"
     style="display:inline">
    <path
       style="fill:#666666;fill-opacity:1;stroke:none;stroke-width:0.99999994px;stroke-linecap:butt;stroke-linejoin:miter;stroke-opacity:1"
       d="M 107.96094 440.28125 L 107.96094 451.86133 C 115.46977 452.65289 127.50059 453.97474 127.8125 454.03711 C 128.25893 454.12631 149.19588 456.40404 151.47266 457.29688 C 153.74945 458.18975 157.63393 460.33175 157.8125 460.59961 C 157.99108 460.86758 157.48431 461.83695 159.01758 463.2793 C 160.55084 464.72164 160.43225 463.25946 160.55078 464.7207 C 160.66931 466.18013 160.98269 467.43108 162.58984 469.2168 C 164.19698 471.00251 166.61133 473.24414 166.61133 473.24414 L 171.78906 470.08789 C 171.78906 470.08789 171.09432 465.54212 168.31641 462.32227 C 165.53849 459.10241 164.84521 456.51276 162.95117 455.43945 C 161.05714 454.36618 156.44641 449.25279 148.17578 447.42188 C 139.90516 445.591 118.37669 443.19286 112.37891 441.29883 C 110.81883 440.80617 109.32697 440.48774 107.96094 440.28125 z "
       transform="scale(0.26458333)"
       id="path12188" />
    <path
       style="fill:#4d4d4d;stroke:none;stroke-width:0.26458332px;stroke-linecap:butt;stroke-linejoin:miter;stroke-opacity:1"
       d="m 46.220924,120.98631 c 0,0 0.300678,-0.11693 0.35079,0.43431 0.05011,0.55125 0.05011,1.05238 -0.23386,1.20272 -0.283974,0.15033 -0.751697,0.53454 -0.751697,0.53454 l -0.133633,1.21941 c 0,0 0.183748,-0.83522 0.384199,-1.06908 0.200454,-0.23386 0.41761,-0.51783 0.601358,-0.50113 0.183748,0.0167 0.534538,0.0501 0.534538,0.0501 0,0 0.03341,-0.48443 0.167045,-0.70158 0.133633,-0.21716 0.267268,-0.61807 0.517834,-0.66818 0.250563,-0.0501 -1.436574,-0.50113 -1.436574,-0.50113 z"
       id="path12190"
       inkscape:connector-curvature="0" />
    <path
       style="fill:#4d4d4d;stroke:none;stroke-width:0.26458332px;stroke-linecap:butt;stroke-linejoin:miter;stroke-opacity:1"
       d="m 48.693167,121.50414 c 0.334087,0.10023 0.593003,0.18375 0.701583,0.35079 0.108577,0.16705 0.183748,0.3508 0.250565,0.53455 0.06682,0.18374 0.282978,1.16669 0.353846,1.40293 0.07087,0.23623 0.153554,0.8032 0.283483,0.95675 0.129929,0.15355 0.732329,1.07487 0.779576,1.14574 0.04725,0.0709 0.637836,0.75595 0.720519,0.85045 0.08268,0.0945 0.53527,0.25452 0.53527,0.25452 0,0 -0.523459,-0.49076 -0.58252,-0.51438 -0.05906,-0.0236 -0.897691,-1.11031 -0.897691,-1.11031 0,0 -0.448847,-0.66145 -0.496094,-0.8032 -0.04725,-0.14174 -0.153554,-0.64964 -0.177178,-0.9095 -0.02363,-0.25986 -0.14174,-0.54334 -0.177176,-0.8032 -0.03543,-0.25986 -0.295293,-0.8032 -0.295293,-0.93313 0,-0.12993 -0.0118,-0.33073 0.03543,-0.4016 0.04725,-0.0709 0.09449,-0.12993 0.09449,-0.12993 z"
       id="path12192"
       inkscape:connector-curvature="0" />
    <path
       style="fill:#4d4d4d;stroke:none;stroke-width:0.26458332px;stroke-linecap:butt;stroke-linejoin:miter;stroke-opacity:1"
       d="m 47.097902,122.23078 c 0,0 0.03341,0.44267 0.07517,0.70159 0.04176,0.25891 0.359145,1.44492 0.375848,1.59526 0.0167,0.15034 0.501132,1.08578 0.601356,1.20272 0.100227,0.11692 0.601358,0.92708 0.693232,1.06072 0.09187,0.13363 0.584653,0.86027 0.584653,0.86027 v 0 c 0,0 -0.56795,-0.48442 -0.718289,-0.67652 -0.150338,-0.1921 -0.65982,-1.11084 -0.7684,-1.26118 -0.108577,-0.15034 -0.384199,-0.7684 -0.492778,-1.00226 -0.108577,-0.23386 -0.476073,-1.8542 -0.476073,-1.8542 l -0.03341,-0.55958 z"
       id="path12194"
       inkscape:connector-curvature="0" />
    <path
       style="fill:#4d4d4d;stroke:none;stroke-width:0.26458332px;stroke-linecap:butt;stroke-linejoin:miter;stroke-opacity:1"
       d="m 51.144902,121.21745 c 0.259858,0.0472 0.484283,0.1063 0.590587,0.24804 0.106307,0.14174 0.496094,0.83864 0.602401,1.05125 0.106307,0.21261 0.271671,0.66146 0.389787,0.94494 0.118118,0.28348 0.141742,0.61421 0.413411,0.76776 0.271672,0.15356 0.53153,0.42523 0.850448,0.57878 0.318918,0.15355 0.956752,0.47247 1.051245,0.51972 0.0945,0.0472 0.2008,0.3071 0.224425,0.47247 0.02363,0.16536 -0.04725,0.38979 -0.04725,0.38979 l 0.205058,-0.86076 c 0,0 -0.07513,0.0457 -0.535787,-0.15506 -0.460658,-0.2008 -0.968566,-0.48428 -1.311106,-0.73233 -0.34254,-0.24804 -0.531529,-0.43703 -0.626022,-0.73232 -0.09449,-0.2953 -0.295294,-1.004 -0.377976,-1.18118 -0.08268,-0.17717 -0.318918,-0.73233 -0.448847,-0.96856 -0.129929,-0.23624 -0.366165,-0.42523 -0.366165,-0.42523 l 0.354354,-0.15355 z"
       id="path12196"
       inkscape:connector-curvature="0" />
    <path
       style="fill:#4d4d4d;stroke:none;stroke-width:0.26458332px;stroke-linecap:butt;stroke-linejoin:miter;stroke-opacity:1"
       d="m 52.68043,120.66229 c 0.2008,0.0236 0.366165,-0.0945 0.460658,0.0827 0.0945,0.17717 0.377979,0.48428 0.484283,0.67327 0.106307,0.18898 0.507905,0.67326 0.720519,0.76776 0.212611,0.0945 0.236233,-0.14174 0.377975,0.34254 0.14174,0.48428 0.212612,0.85045 0.318916,1.11031 0.106307,0.25985 0.377978,0.59058 0.519718,0.68508 0.14174,0.0945 1.21661,0.75595 1.263859,0.77957 0.04725,0.0236 0.129929,0.0591 0.129929,0.0591 l 0.306208,-0.23404 c 0,0 -0.518819,-0.0967 -1.050348,-0.7109 -0.53153,-0.61421 -1.015813,-1.13393 -1.122117,-1.44103 -0.106307,-0.30711 -0.224425,-0.92132 -0.224425,-0.92132 0,0 -0.602398,-0.47247 -0.944941,-0.87407 -0.34254,-0.4016 -0.519715,-0.74414 -0.519715,-0.74414 0,0 -0.496094,0.12993 -0.543341,0.12993 -0.04725,0 -0.177178,0.29529 -0.177178,0.29529 z"
       id="path12198"
       inkscape:connector-curvature="0" />
    <path
       style="fill:#808080;stroke:none;stroke-width:0.26458332px;stroke-linecap:butt;stroke-linejoin:miter;stroke-opacity:1"
       d="m 55.107636,118.39714 5.595956,-2.99008 1.11919,-0.21716 1.135896,2.10475 -0.835219,0.70158 -4.994597,2.58918 z"
       id="path12203"
       inkscape:connector-curvature="0" />
    <path
       style="fill:#808080;stroke:none;stroke-width:0.26458332px;stroke-linecap:butt;stroke-linejoin:miter;stroke-opacity:1"
       d="m 64.77945,113.97048 0.7684,-0.43431 c 0,0 0.384202,0.0501 0.484426,0.18375 0.100227,0.13363 0.952148,1.60362 0.985557,1.73725 0.03341,0.13364 -0.267269,0.26727 -0.267269,0.26727 l -1.252825,0.43432 -0.651471,-2.08805 z"
       id="path12205"
       inkscape:connector-curvature="0"
       sodipodi:nodetypes="cccccccc" />
  </g>
  <g
     inkscape:groupmode="layer"
     id="layer45"
     inkscape:label="Layer 12">
    <path
       style="fill:#cccccc;stroke:none;stroke-width:0.26458332px;stroke-linecap:butt;stroke-linejoin:miter;stroke-opacity:1"
       d="m 59.696614,111.10658 5.102677,9.92188 2.598587,-1.46466 c 0,0 0.141742,-0.4016 0.141742,-0.54334 0,-0.14174 -2.76017,-5.04998 -2.76017,-5.04998 l -4.090649,-3.35999 z"
       id="path12210"
       inkscape:connector-curvature="0" />
  </g>
  <g
     inkscape:groupmode="layer"
     id="layer44"
     inkscape:label="Layer 11"
     style="display:inline">
    <path
       style="fill:#999999;stroke:none;stroke-width:0.26458332px;stroke-linecap:butt;stroke-linejoin:miter;stroke-opacity:1"
       d="m 45.452524,124.37729 -6.264129,2.92326 c 0,0 -0.217157,0.11693 -0.08352,0.58465 0.133636,0.46773 1.052375,1.73726 1.152602,1.80407 0.100224,0.0668 0.267269,0.11693 0.267269,0.11693 l 5.646068,-3.24064 z"
       id="path12201"
       inkscape:connector-curvature="0" />
  </g>
  <g
     inkscape:groupmode="layer"
     id="layer40"
     inkscape:label="Layer 7"
     style="display:inline;opacity:1">
    <path
       style="display:inline;fill:#cccccc;fill-opacity:1;stroke:none;stroke-width:0.99999994px;stroke-linecap:butt;stroke-linejoin:miter;stroke-opacity:1"
       d="M 107.96094 409.8125 L 107.96094 428.39453 L 164.5293 443.69727 C 164.5293 443.69727 168.70452 454.03654 171.42773 455.50977 C 174.15096 456.98299 179.06222 459.03679 179.33008 458.99219 C 179.59793 458.94759 185.44698 459.35027 186.65234 459.17188 C 187.8577 458.99329 193.21484 458.23464 195.40234 457.6543 C 197.58984 457.07391 201.02734 455.10938 201.02734 455.10938 C 201.02734 455.10938 201.78488 457.25167 202.99023 458.76953 C 204.19559 460.28739 206.96484 461.53711 206.96484 461.53711 C 206.96484 461.53711 208.39258 466.89454 209.33008 468.45703 C 210.26758 470.01953 214.55441 472.5205 215.75977 472.6543 C 216.96512 472.78821 218.57088 473.09987 219.91016 472.20703 C 221.24941 471.31416 221.16016 470.02344 221.16016 470.02344 C 221.16016 470.02344 220.84409 468.63622 219.64453 466.74219 C 218.44498 464.84815 218.13066 464.84691 217.37305 459.48047 C 216.61544 454.11403 216.3624 453.6722 215.47852 452.47266 C 214.59462 451.27311 211.94354 448.81083 207.65039 444.89648 C 203.35724 440.98214 199.63139 439.27705 196.66406 438.14062 C 193.69674 437.0042 181.44784 435.61568 178.66992 434.79492 C 175.892 433.9742 169.76908 431.44887 168.06445 430.12305 C 166.35982 428.79723 155.1225 424.25107 153.03906 423.36719 C 150.95562 422.48331 121.97612 415.47576 120.27148 414.9707 C 118.83765 414.54584 110.84971 411.07211 107.96094 409.8125 z "
       transform="scale(0.26458333)"
       id="path12178" />
  </g>
  <g
     inkscape:groupmode="layer"
     id="layer39"
     inkscape:label="First">
    <g
       inkscape:groupmode="layer"
       id="layer34"
       inkscape:label="Layer 2"
       style="opacity:1">
      <path
         style="fill:#cccccc;stroke:none;stroke-width:0.99999994px;stroke-linecap:butt;stroke-linejoin:miter;stroke-opacity:1"
         d="m 126.86914,87.695312 c -7.57614,-0.0059 -15.15179,1.532796 -16.76172,3.710938 -2.14658,2.904189 1.38722,9.21818 3.28125,11.99609 1.89404,2.77793 7.70354,6.44015 14.26953,9.0918 6.56599,2.65165 12.62598,2.52412 13.88868,2.65039 1.26269,0.12627 12.37453,4.92549 18.05664,6.31445 5.68211,1.38897 13.76376,6.94465 14.14257,11.86914 0.37881,4.92451 -5.304,21.46624 -7.70312,21.71876 -2.39911,0.25254 -49.62199,-2.9046 -53.03125,-4.04102 -3.40927,-1.13642 -20.45705,0.25156 -25.507814,-1.26367 -5.05076,-1.51523 -14.772962,-9.97559 -17.929687,-13.76367 -3.15673,-3.78807 -17.047082,-0.75752 -20.330078,0.3789 -3.282996,1.13642 0,7.45117 0,7.45117 0,0 -7.953324,4.03928 -8.710938,7.32227 -0.757614,3.283 10.480469,11.36523 10.480469,11.36523 0,0 59.346108,45.07813 60.861328,45.07813 1.51523,0 141.92578,-42.93164 141.92578,-42.93164 l 159.77149,110.80664 v -62.59961 c -8.1554,-4.03035 -14.55554,-7.25662 -16.83399,-8.55859 -8.83884,-5.05076 -73.49005,-41.92102 -77.7832,-46.0879 -4.29315,-4.16688 -32.45098,-23.61299 -34.21875,-25.00195 -1.76777,-1.38896 -65.1543,-20.07617 -65.1543,-20.07617 l -18.5625,-4.16797 -1.00976,-0.37891 c 0,0 -56.56752,-18.812892 -65.78516,-20.32812 -2.30441,-0.378808 -4.83009,-0.552714 -7.35547,-0.554688 z"
         transform="scale(0.26458333)"
         id="path10089"
         inkscape:connector-curvature="0" />
    </g>
    <g
       inkscape:groupmode="layer"
       id="layer35"
       inkscape:label="Layer 3"
       style="display:inline">
      <path
         style="fill:#666666;stroke:none;stroke-width:0.26458332px;stroke-linecap:butt;stroke-linejoin:miter;stroke-opacity:1"
         d="m 20.127232,45.149738 c 0.236235,0.02363 14.150483,0.850447 14.45759,0.874069 0.307105,0.02363 11.126674,-0.826823 12.520459,-0.614209 1.393788,0.212611 3.68527,3.519903 3.68527,3.519903 0,0 -15.473402,6.236607 -19.064176,5.362535 -3.590772,-0.874069 -11.977119,-6.945312 -12.402343,-8.268229 -0.425223,-1.322916 0.8032,-0.874069 0.8032,-0.874069 z"
         id="path10092"
         inkscape:connector-curvature="0" />
      <path
         style="fill:#808080;stroke:none;stroke-width:0.26458332px;stroke-linecap:butt;stroke-linejoin:miter;stroke-opacity:1"
         d="m 45.286271,38.865884 c 0.02363,0.614211 0.236235,1.889881 0.968565,2.69308 0.73233,0.8032 1.393788,1.724517 1.393788,1.724517 0,0 -2.031624,-1.677268 -3.68527,-2.007997 -1.653646,-0.330729 -1.984375,-0.354354 -1.984375,-0.354354 l 2.055246,0.09449 z"
         id="path10094"
         inkscape:connector-curvature="0" />
      <path
         style="fill:#808080;stroke:none;stroke-width:0.26458332px;stroke-linecap:butt;stroke-linejoin:miter;stroke-opacity:1"
         d="m 40.419829,31.400855 c 2.456844,0.07087 2.267858,-0.708705 3.756139,0 1.488281,0.708705 2.244233,1.252046 2.173361,2.244233 -0.07087,0.992188 -0.354351,1.677271 -0.354351,1.677271 0,0 0.188987,-0.897694 -0.732329,-1.511906 -0.921317,-0.614212 -2.834823,-1.889882 -3.543528,-1.937128 -0.708705,-0.04725 -1.299292,-0.47247 -1.299292,-0.47247 z"
         id="path10096"
         inkscape:connector-curvature="0" />
      <path
         style="fill:#808080;stroke:none;stroke-width:0.26458332px;stroke-linecap:butt;stroke-linejoin:miter;stroke-opacity:1"
         d="m 29.19866,24.479166 c 0.921318,1.181175 0.212611,1.015811 2.527715,1.984374 2.315104,0.968565 4.653833,1.488281 5.740514,1.630024 1.086683,0.14174 1.767016,1.297203 1.71977,1.675182 -0.04725,0.377976 1.23317,1.632109 1.23317,1.632109 l -3.260045,-0.921318 c 0,0 -2.95294,-0.566963 -3.071056,-0.566963 -0.118118,0 -3.425409,-1.559152 -3.590774,-1.937128 C 30.33259,27.59747 29.151413,25.9202 29.151413,25.9202 l -0.14174,-1.417411 z"
         id="path10098"
         inkscape:connector-curvature="0"
         sodipodi:nodetypes="csccccscccc" />
    </g>
    <g
       inkscape:groupmode="layer"
       id="layer37"
       inkscape:label="Layer 5"
       style="display:inline">
      <path
         style="fill:#808080;fill-opacity:0.52534563;stroke:none;stroke-width:0.26458332px;stroke-linecap:butt;stroke-linejoin:miter;stroke-opacity:1"
         d="m 21.355655,13.754091 c 0,0 1.653645,-2.645833 11.859001,-2.551339 10.205358,0.09449 11.90625,1.795387 11.90625,1.795387 0,0 3.212798,10.394345 5.149927,16.725446 1.937128,6.331101 1.984375,12.142486 -3.401785,17.197916 -5.386163,5.055431 -8.268229,6.000372 -13.229167,6.000372 -4.960937,0 -7.843006,-2.598587 -11.292039,-4.960937 -3.449033,-2.362351 -8.078861,-8.885494 -5.149926,-19.84375 2.740327,-10.252604 4.157739,-14.363095 4.157739,-14.363095 z"
         id="path10136"
         inkscape:connector-curvature="0"
         sodipodi:nodetypes="cscsssssc" />
      <ellipse
         style="opacity:1;fill:#808080;fill-opacity:0.48387098;stroke:none;stroke-width:0.56499994;stroke-linecap:round;stroke-miterlimit:4;stroke-dasharray:none;stroke-opacity:1"
         id="path10145"
         cx="33.757999"
         cy="74.253906"
         rx="12.685826"
         ry="4.653832" />
      <path
         style="fill:#808080;fill-opacity:0.52073735;stroke:none;stroke-width:0.26458332px;stroke-linecap:butt;stroke-linejoin:miter;stroke-opacity:1"
         d="m 31.844493,58.119046 0.141742,9.969122 c 0,0 -0.0945,2.409597 -1.889881,3.685267 -1.795386,1.27567 -1.653646,1.13393 -1.653646,1.13393 0,0 0.09449,0.803199 1.228423,1.039434 1.133928,0.236236 5.149924,0.04725 6.472841,-0.236235 1.322917,-0.283483 2.220611,-0.755952 2.031622,-0.992188 C 37.986607,72.48214 36.049479,71.395459 35.624256,69.552827 35.199031,67.710192 35.435267,58.024553 35.435267,58.024553 Z"
         id="path10147"
         inkscape:connector-curvature="0" />
    </g>
    <g
       inkscape:groupmode="layer"
       id="layer38"
       inkscape:label="Layer 6"
       style="display:inline">
      <path
         style="fill:#4d4d4d;fill-opacity:0.49308759;stroke:none;stroke-width:0.26458332px;stroke-linecap:butt;stroke-linejoin:miter;stroke-opacity:1"
         d="m 21.355655,13.754091 c 2.121172,1.101267 2.290832,1.961998 11.055803,1.795387 15.004331,-0.285213 12.709448,-2.551339 12.709448,-2.551339 0,0 -1.365156,-1.238762 -8.740698,-1.700893 -3.782185,5.582891 -9.687692,4.158144 -12.903381,3.558112 -0.825017,-0.153944 -2.121172,-1.101267 -2.121172,-1.101267 z"
         id="path10141"
         inkscape:connector-curvature="0"
         sodipodi:nodetypes="csccsc" />
      <path
         style="opacity:1;fill:#808080;fill-opacity:0.49308759;stroke:none;stroke-width:2.13543272;stroke-linecap:round;stroke-miterlimit:4;stroke-dasharray:none;stroke-opacity:1"
         d="M 127.85742 117.51953 A 66.428573 15.892857 0 0 0 61.427734 133.41211 A 66.428573 15.892857 0 0 0 61.601562 134.55078 C 61.613196 136.54713 61.752559 140.87679 62.677734 144.8418 C 63.927734 150.19894 72.857422 176.26953 72.857422 176.26953 C 72.857422 176.26953 106.96374 201.80469 108.03516 201.80469 L 165.53516 201.80469 C 167.49945 201.80469 202.67773 177.16266 201.42773 175.37695 C 200.17774 173.59123 187.14258 165.91211 187.14258 165.91211 L 189.28516 161.26953 C 189.28516 161.26953 192.32198 154.66351 193.21484 148.94922 C 194.10769 143.23494 194.28516 133.76953 194.28516 133.76953 L 194.21094 133.76953 A 66.428573 15.892857 0 0 0 194.28516 133.41211 A 66.428573 15.892857 0 0 0 127.85742 117.51953 z "
         transform="scale(0.26458333)"
         id="path12163" />
    </g>
    <g
       inkscape:label="Layer 1"
       inkscape:groupmode="layer"
       id="layer1"
       style="display:inline;opacity:1">
      <path
         style="fill:#b3b3b3;stroke:none;stroke-width:0.99999994px;stroke-linecap:butt;stroke-linejoin:miter;stroke-opacity:1"
         d="m 243.48828,130.78711 c -10.95822,-0.78703 -18.9349,24.57447 -25.80078,25.52148 -7.3236,1.01016 -31.31457,7.32414 -34.21875,9.47071 -2.90419,2.14658 -5.9342,12.37451 -10.73242,13.00586 -4.79823,0.63134 -15.40461,7.57509 -19.06641,5.93359 -3.6618,-1.64149 -12.62696,-3.66084 -15.15234,-3.78711 -2.52538,-0.12627 -7.4504,-4.92579 -9.4707,-7.45117 -2.02031,-2.52538 -15.4053,-14.39436 -19.19336,-18.6875 -3.78807,-4.29315 -6.31379,-2.6505 -11.238286,-3.0293 -4.924493,-0.37881 -3.408203,4.1672 -3.408203,6.1875 0,2.02031 4.798339,7.19582 5.429689,11.61524 0.63134,4.41941 6.31408,11.49025 9.84961,16.54101 3.53554,5.05077 16.16123,12.8794 15.27734,12.24805 -0.88388,-0.63134 -5.17727,-2.39766 -10.85937,-1.89258 -5.68211,0.50507 -7.32366,1.8e-4 -15.152347,-4.29297 -7.828683,-4.29315 -20.328125,-17.29883 -20.328125,-17.29883 0,0 -4.419347,-9.59776 -7.197266,-12.50195 -2.777918,-2.90419 -6.06125,-4.79844 -11.238281,-5.80859 -5.177034,-1.01015 -9.217095,4.42111 -10.353515,6.4414 -1.136421,2.02032 0.756058,2.90343 1.513672,4.54493 0.757613,1.6415 25.507038,27.65371 27.527343,30.43164 2.020305,2.77791 16.395369,14.54185 17.466797,15.61328 1.071428,1.07143 14.285712,7.85576 17.500002,8.21289 3.21428,0.35714 16.07088,2.85797 21.78515,-1.42774 5.71429,-4.28573 15.71458,-1.42828 25.35743,0.35743 9.64286,1.7857 19.64257,-1.07172 29.64257,-7.85743 10,-6.78572 64.64342,-15.35742 70.71485,-15.35742 6.07143,0 20.35826,9.28599 23.92969,10.35742 2.35485,0.70646 76.0558,56.06142 127.42187,94.75391 V 249.7207 c -57.72537,-36.42733 -141.76843,-90.27378 -142.26758,-95.43164 -0.75762,-7.82868 -13.38598,-18.1842 -25.50781,-22.98242 -0.75761,-0.29989 -1.49992,-0.46706 -2.23047,-0.51953 z"
         transform="scale(0.26458333)"
         id="path10086"
         inkscape:connector-curvature="0" />
    </g>
    <g
       inkscape:groupmode="layer"
       id="layer36"
       inkscape:label="Layer 4"
       style="display:inline">
      <path
         style="fill:#666666;stroke:none;stroke-width:0.99999994px;stroke-linecap:butt;stroke-linejoin:miter;stroke-opacity:1"
         d="m 52.589844,165.98438 c -0.386439,-0.006 -0.625562,0.0176 -0.714844,0.0176 l -0.3125,0.60352 c 0.218922,0.29346 0.428026,0.59926 0.585938,0.94141 0.757612,1.64149 25.507038,27.65371 27.527343,30.43164 2.020305,2.77791 16.395373,14.54185 17.466797,15.61328 1.071428,1.07143 14.285712,7.85576 17.500002,8.21289 3.21428,0.35714 16.07088,2.85797 21.78515,-1.42774 5.71429,-4.28573 15.71458,-1.42828 25.35743,0.35743 9.64286,1.78569 19.64258,-1.07172 29.64257,-7.85743 10,-6.78572 64.64342,-15.35742 70.71485,-15.35742 0.34094,0 0.71607,0.0402 1.10547,0.0957 l 0.59179,-0.18554 1.41211,0.63672 c 3.7948,1.0941 8.62589,3.59772 12.8711,5.85937 l 8.12695,3.95117 0.85938,0.61914 c 5.84055,3.82499 35.56078,25.9411 68.75585,50.81641 l 8.54688,6.3457 49.11328,36.97461 v -18.4707 c -22.20508,-15.96823 -44.10026,-31.85319 -46.91797,-34.14258 -5.71428,-4.64285 -38.21428,-23.03599 -46.25,-34.10742 -8.03571,-11.07143 -59.73822,-32.3297 -66.93554,-33.33984 -7.19734,-1.01015 -12.12093,4.79933 -18.93946,6.69335 -6.81853,1.89404 -21.97083,7.07071 -29.92578,8.58594 -7.95495,1.51523 -16.79358,6.81847 -21.5918,7.19727 -4.79822,0.37881 -5.05218,0.88349 -12.88086,1.00976 -7.82869,0.12627 -8.33291,5.17764 -11.74218,4.79883 -3.40927,-0.37881 -15.53069,-0.25255 -20.83399,-2.52539 -5.30331,-2.27284 -8.20863,-1.89364 -19.32031,1.51563 -11.11168,3.40925 -7.07109,1.7669 -7.57617,1.64062 -0.50507,-0.12627 -4.8962,-2.62892 -12.664064,-7.0039 -7.767855,-4.375 -16.339284,-14.37584 -20.625,-19.19727 -4.285716,-4.82143 -12.501392,-14.64258 -17.41211,-17.14258 -3.683035,-1.87501 -6.160995,-2.14343 -7.320312,-2.16015 z"
         transform="scale(0.26458333)"
         id="path10101"
         inkscape:connector-curvature="0" />
    </g>
  </g>
</svg>
