<?xml version="1.0" encoding="UTF-8" standalone="no"?>
<!-- Created with Inkscape (http://www.inkscape.org/) -->

<svg
   xmlns:dc="http://purl.org/dc/elements/1.1/"
   xmlns:cc="http://creativecommons.org/ns#"
   xmlns:rdf="http://www.w3.org/1999/02/22-rdf-syntax-ns#"
   xmlns:svg="http://www.w3.org/2000/svg"
   xmlns="http://www.w3.org/2000/svg"
   xmlns:sodipodi="http://sodipodi.sourceforge.net/DTD/sodipodi-0.dtd"
   xmlns:inkscape="http://www.inkscape.org/namespaces/inkscape"
   width="210mm"
   height="297mm"
   viewBox="0 0 210 297"
   version="1.1"
   id="svg143"
   inkscape:version="0.92.3 (d244b95, 2018-08-02)"
   sodipodi:docname="Poster.svg">
  <defs
     id="defs137" />
  <sodipodi:namedview
     id="base"
     pagecolor="#ffffff"
     bordercolor="#666666"
     borderopacity="1.0"
     inkscape:pageopacity="0.0"
     inkscape:pageshadow="2"
     inkscape:zoom="1.1240052"
     inkscape:cx="330.24249"
     inkscape:cy="517.17058"
     inkscape:document-units="mm"
     inkscape:current-layer="layer4"
     showgrid="false"
     inkscape:window-width="2560"
     inkscape:window-height="1385"
     inkscape:window-x="0"
     inkscape:window-y="27"
     inkscape:window-maximized="1" />
  <metadata
     id="metadata140">
    <rdf:RDF>
      <cc:Work
         rdf:about="">
        <dc:format>image/svg+xml</dc:format>
        <dc:type
           rdf:resource="http://purl.org/dc/dcmitype/StillImage" />
        <dc:title />
      </cc:Work>
    </rdf:RDF>
  </metadata>
  <g
     inkscape:label="Title GOT"
     inkscape:groupmode="layer"
     id="layer1">
    <g
       inkscape:groupmode="layer"
       id="layer3"
       inkscape:label="Background">
      <rect
         id="rect217"
         width="210.40327"
         height="249.62138"
         x="-0.16154847"
         y="47.247658"
         style="fill:#4d4d4d;stroke-width:0.2595256" />
      <path
         style="fill:#4d4d4d;stroke-width:0.16152374"
         d="M 0,172.83001 V 48.660024 H 49.432603 98.865206 V 172.83001 297 H 49.432603 0 Z"
         id="path223"
         inkscape:connector-curvature="0" />
    </g>
    <g
       inkscape:groupmode="layer"
       id="layer4"
       inkscape:label="Background tiles">
      <rect
         style="fill:#666666;stroke:none;stroke-width:0.29492763"
         id="rect164"
         width="104.00169"
         height="170"
         x="4"
         y="52"
         ry="4.8775253" />
      <rect
         style="fill:#666666;stroke:none;stroke-width:0.19294308"
         id="rect164-3"
         width="94.585999"
         height="80"
         x="112"
         y="52"
         ry="4.4000001" />
      <rect
         style="fill:#6c5353;stroke:none;stroke-width:0.19888118"
         id="rect164-3-6"
         width="94.585999"
         height="85.000008"
         x="112"
         y="137"
         ry="4.6750002" />
      <rect
         style="fill:#6c5353;stroke:none;stroke-width:0.2580381"
         id="rect164-3-6-7"
         width="202"
         height="67"
         x="4"
         y="226"
         ry="3.6849999" />
    </g>
    <g
       transform="matrix(0.19564259,0,0,0.19564259,7.9937341,7.4570251)"
       id="g128">
      <path
         style="clip-rule:evenodd;fill:#010101;fill-rule:evenodd"
         inkscape:connector-curvature="0"
         d="m 443.317,0.063 c 1.592,0.001 3.253,-0.266 4.786,0.292 2.096,0.616 4.303,0.649 6.468,0.867 3.774,0.295 7.559,0.497 11.348,0.422 172.407,0.003 342.643,0 515.053,0.003 4.599,0.049 9.214,-0.321 13.72,-1.287 0.613,-0.078 1.306,-0.354 1.923,-0.034 0.938,0.885 0.532,2.314 0.729,3.454 0.525,4.778 1.566,7.743 2.556,12.434 0.163,0.968 0.197,2.092 -0.447,2.91 -0.638,0.727 -1.95,0.521 -2.289,-0.39 -2.315,-5.68 -3.591,-6.935 -8.175,-8.162 C 983.16,9.012 977.073,8.829 971.075,8.88 938.109,8.909 905.143,8.829 872.178,8.842 840.857,8.789 809.535,8.825 778.214,8.774 744.272,8.789 710.333,8.703 676.394,8.737 653.217,8.639 630.038,8.759 606.865,8.664 568.867,8.687 530.866,8.601 492.869,8.628 c 0.015,16.23 -0.008,32.462 0.003,48.69 0.022,14.689 -0.064,28.873 0.224,43.56 0.149,4.34 0.139,8.711 0.875,13.007 0.357,2.082 1.426,4.36 3.637,5.012 2.802,0.753 5.742,0.712 8.613,1.004 0.986,0.074 1.557,1.346 0.963,2.122 -0.624,0.824 -1.777,0.852 -2.72,0.889 -4.847,-0.014 -9.699,-0.129 -14.55,-0.306 -6.483,-0.369 -12.968,0.495 -19.457,0.278 -0.807,-0.047 -1.811,-0.399 -1.939,-1.309 -0.248,-0.834 0.456,-1.683 1.317,-1.688 1.785,-0.136 3.591,-0.325 5.317,-0.827 1.404,-0.458 2.088,-1.893 2.497,-3.188 0.963,-3.282 1.114,-6.714 1.256,-10.108 0.256,-6.809 0.307,-13.126 0.329,-19.935 0.074,-25.738 0.015,-51.475 0.032,-77.208 -7.599,0.115 -13.024,0.181 -20.622,0.3 -3.27,0.104 -6.629,0.196 -9.731,1.333 -1.527,0.554 -2.871,1.564 -3.794,2.89 -1.156,1.629 -2.121,3.384 -2.913,5.21 -0.317,0.839 -1.224,1.618 -2.163,1.289 -0.917,-0.351 -0.919,-1.492 -0.822,-2.299 0.476,-3.106 1.241,-6.159 1.922,-9.225 0.659,-2.702 1.077,-5.479 2.174,-8.056 z"
         id="path102" />
      <path
         style="clip-rule:evenodd;fill:#010101;fill-rule:evenodd"
         inkscape:connector-curvature="0"
         d="m 54.073,4.8 c 8.57,-0.675 17.207,-0.322 25.696,1.066 4.3,0.605 8.508,1.795 12.839,2.18 1.692,0.2 3.388,0.307 5.086,0.429 0.853,0.075 1.894,0.38 2.19,1.326 0.165,0.933 -0.008,1.882 -0.091,2.813 -0.723,6.398 -0.829,12.852 -0.861,19.287 -0.041,0.829 -0.036,1.739 -0.483,2.465 -0.512,0.797 -1.924,0.915 -2.323,-0.053 C 95.544,33.036 95.684,31.565 95.385,30.21 94.698,26.592 93.374,22.877 90.655,20.359 87.501,17.343 83.514,15.46 79.487,14.046 71.351,11.299 62.685,10.64 54.181,11.059 c -3.792,0.163 -7.56,0.764 -11.235,1.721 -5.848,1.614 -11.304,4.634 -15.956,8.62 -6.328,5.676 -9.995,13.884 -11.836,22.198 -1.98,9.269 -2.055,19.007 0.066,28.254 1.889,8.213 5.325,16.076 10.237,22.834 2.593,3.632 5.936,6.612 9.413,9.305 4.727,3.581 10.019,6.368 15.619,8.151 6.287,1.98 12.916,2.729 19.472,2.347 4.004,-0.346 8.076,-0.76 11.851,-2.275 1.153,-0.539 2.38,-1.115 3.155,-2.193 0.792,-1.14 0.931,-2.591 0.934,-3.954 -0.003,-8.545 0,-17.097 -0.003,-25.642 -0.048,-2.686 -0.027,-5.388 -0.453,-8.047 -0.261,-1.56 -0.781,-3.234 -2.118,-4.16 -2.431,-1.726 -5.478,-1.927 -8.334,-2.001 -0.846,0.048 -1.906,-0.507 -1.777,-1.521 0.023,-1.066 1.187,-1.48 2.057,-1.488 4.002,-0.088 8.006,0.088 12.007,0.205 2.313,0.041 4.625,0.278 6.941,0.134 3.995,-0.177 7.989,-0.326 11.985,-0.396 0.856,0.007 1.75,-0.018 2.558,0.321 0.863,0.357 1.124,1.751 0.346,2.334 -0.749,0.594 -1.763,0.384 -2.638,0.546 -1.792,0.258 -3.808,0.438 -5.161,1.835 -1.397,1.488 -1.645,3.665 -1.853,5.632 -0.415,5.778 -0.344,11.57 -0.354,17.361 0,5.425 -0.003,10.845 0,16.27 -0.027,1.604 0.019,3.218 -0.178,4.814 -0.124,0.773 -0.297,1.614 -0.887,2.163 -0.744,0.696 -1.694,1.079 -2.592,1.513 -3.006,1.513 -6.212,2.55 -9.438,3.438 -12.477,3.238 -25.613,3.285 -38.239,0.949 C 37.304,118.33 27.122,114.048 18.819,107.076 14.333,103.407 10.722,98.69 7.853,93.597 3.145,85.167 0.429,75.558 0.052,65.828 -0.327,55.983 1.366,46.004 5.298,37.006 8.558,29.541 13.396,22.766 19.567,17.598 27.577,10.848 37.61,7.028 47.778,5.556 49.858,5.156 51.971,5.029 54.073,4.8 Z"
         id="path104" />
      <path
         style="clip-rule:evenodd;fill:#010101;fill-rule:evenodd"
         inkscape:connector-curvature="0"
         d="m 715.363,22.968 c -3.123,0.167 -6.226,0.683 -9.247,1.477 -7.154,1.884 -13.736,5.879 -18.737,11.325 -5.297,5.767 -8.864,13.016 -10.647,20.613 -1.97,8.409 -1.244,17.354 1.557,25.488 2.444,7.104 6.774,13.615 12.635,18.355 5.648,4.564 12.609,7.365 19.781,8.369 11.55,1.613 23.817,-0.842 33.288,-7.819 9.396,-6.925 15.348,-17.962 16.859,-29.454 1.034,-7.882 0.495,-16.106 -2.37,-23.567 -1.813,-4.725 -4.581,-9.094 -8.121,-12.716 -3.729,-3.813 -8.294,-6.78 -13.241,-8.76 -6.877,-2.757 -14.385,-3.706 -21.757,-3.311 z m 1.428,5.07 v 75.648 l -0.638,-0.088 c -0.82,-0.105 -1.638,-0.241 -2.444,-0.414 l -0.448,-0.095 V 28.324 c 1.186,-0.161 2.337,-0.251 3.53,-0.286 z m -7.684,73.81 c -8.02,-3.005 -14.231,-9.044 -17.938,-16.714 -3.98,-8.24 -5.26,-17.602 -4.602,-26.672 0.55,-7.58 3.374,-14.601 8.227,-20.454 3.723,-4.487 8.758,-7.409 14.367,-8.875 l 0.709,-0.185 v 73.185 z m 18.742,-72.254 c 4.113,1.374 7.775,3.63 10.878,6.656 4.896,4.781 8.603,11.091 10.227,17.744 1.679,6.892 1.854,14.083 1.031,21.107 -0.713,6.032 -2.51,12.044 -5.934,17.109 -3.846,5.684 -9.62,9.285 -16.253,10.817 l -0.692,0.163 V 29.345 Z m -4.657,74.153 c -0.81,0.067 -1.624,0.108 -2.438,0.115 l -0.573,0.007 V 28.097 c 0.912,-0.024 2.614,0.171 3.53,0.438 v 75.172 z"
         id="path106" />
      <path
         style="clip-rule:evenodd;fill:#010101;fill-rule:evenodd"
         inkscape:connector-curvature="0"
         d="m 773.059,26.716 c 0.14,-0.746 0.519,-1.763 1.563,-1.737 1.177,0.156 1.943,1.078 2.739,1.785 7.69,7.474 15.398,14.932 23.136,22.366 8.423,8.118 16.938,16.164 25.29,24.343 5.821,5.676 11.563,11.417 17.459,17.032 -0.403,-16.052 -0.776,-32.104 -1.17,-48.157 -0.143,-3.15 0.055,-6.348 -0.672,-9.456 -0.298,-1.346 -1.146,-2.708 -2.647,-3.218 -2.201,-0.753 -4.608,-0.663 -6.914,-0.85 -0.926,-0.044 -1.363,-1.129 -0.861,-1.767 0.712,-0.634 1.794,-0.608 2.736,-0.631 3.855,-0.007 7.707,0.199 11.563,0.288 4.019,0.058 8.067,-0.573 12.064,-0.123 1.356,0.164 1.248,1.965 -0.017,2.165 -1.817,0.224 -3.784,0.185 -5.382,1.107 -1.284,0.815 -1.62,2.299 -1.78,3.61 -0.393,3.506 -0.104,7.036 -0.233,10.554 -0.027,14.44 -0.115,28.881 -0.132,43.326 -0.092,5.486 0.044,10.979 -0.137,16.466 -0.125,0.984 0,2.137 -0.752,2.947 -0.78,0.481 -1.746,0.037 -2.387,-0.417 -1.801,-1.269 -3.408,-2.733 -5.032,-4.171 C 832.937,94.633 824.65,86.851 816.353,79.086 803.762,67.238 791.515,55.104 779.294,42.95 c 0.468,14.989 0.905,29.971 1.362,44.958 0.112,3.168 0.099,6.346 0.557,9.492 0.377,2.092 0.824,4.814 3.367,5.659 2.126,0.624 4.388,0.59 6.592,0.803 0.997,0.146 1.251,1.523 0.39,1.971 -1.152,0.617 -2.57,0.349 -3.838,0.407 -4.585,0.054 -9.159,-0.499 -13.733,-0.201 -2.72,0.099 -5.439,0.222 -8.155,0.204 -0.732,-0.017 -1.556,-0.051 -2.075,-0.556 -0.634,-0.648 -0.173,-1.849 0.841,-1.855 1.95,-0.183 4.035,-0.121 5.813,-0.99 1.112,-0.719 1.468,-2.004 1.746,-3.143 0.454,-2.415 0.458,-4.869 0.529,-7.312 0.051,-19.935 0.074,-39.867 0.125,-59.804 0.03,-1.952 -0.112,-3.927 0.244,-5.867 z"
         id="path108" />
      <path
         style="clip-rule:evenodd;fill:#010101;fill-rule:evenodd"
         inkscape:connector-curvature="0"
         d="m 950.638,23.646 c 5.689,-0.583 11.495,-0.183 17.069,0.962 1.374,0.312 2.808,0.292 4.201,0.515 0.841,0.224 0.851,1.11 0.79,1.747 -0.38,3.838 -0.424,7.692 -0.472,11.542 -0.067,0.809 -0.152,2.011 -1.277,2.184 -0.855,0.044 -1.489,-0.583 -1.544,-1.288 -0.305,-1.836 -0.674,-3.686 -1.464,-5.414 -1.211,-2.259 -3.73,-3.694 -6.284,-4.557 -3.234,-1.07 -6.754,-1.313 -10.172,-1.131 -3.435,0.293 -6.914,1.453 -9.277,3.747 -4.408,4.172 -4.526,11.115 -0.739,15.649 3.041,3.67 7.09,6.554 10.989,9.474 5.165,3.652 10.495,7.197 14.812,11.665 3.429,3.466 6.205,7.615 6.951,12.234 1.313,6.195 -0.233,12.854 -4.425,17.978 -3.768,4.714 -9.766,7.771 -16.103,8.884 -6.976,1.229 -14.316,0.93 -21.112,-0.932 -1.532,-0.546 -3.143,-0.983 -4.533,-1.78 -1.052,-0.614 -1.194,-1.805 -1.218,-2.818 -0.044,-3.76 0.149,-7.523 0.496,-11.274 0.128,-1.051 -0.021,-2.244 0.731,-3.14 0.597,-0.776 2.259,-0.366 2.279,0.597 0.122,1.044 0.044,2.102 0.189,3.153 0.332,2.666 1.451,5.317 3.52,7.317 2.367,2.357 5.806,3.649 9.258,4.212 5.303,0.929 11.229,0.4 15.647,-2.563 2.938,-1.95 4.931,-4.91 5.67,-8.077 0.993,-4.774 -0.406,-9.929 -3.974,-13.651 -7.67,-8.098 -18.752,-13.134 -25.767,-21.78 -3.514,-4.093 -5.348,-9.231 -5.128,-14.364 0.041,-4.95 2.174,-9.949 6.273,-13.378 3.936,-3.34 9.259,-5.136 14.614,-5.713 z"
         id="path110" />
      <path
         style="clip-rule:evenodd;fill:#010101;fill-rule:evenodd"
         inkscape:connector-curvature="0"
         d="m 911.128,25.559 c 0.867,-0.137 1.658,-0.697 2.573,-0.561 1.085,0.624 0.645,1.936 0.443,2.86 -1,3.39 -0.786,6.911 -1.271,10.359 -0.153,0.7 -0.424,1.673 -1.388,1.77 -0.905,0.109 -1.549,-0.69 -1.546,-1.406 -0.163,-1.943 -0.156,-4.271 -2.034,-5.622 -1.978,-1.231 -4.507,-1.438 -6.84,-1.712 -5.51,-0.3 -11.037,-0.215 -16.551,-0.343 -0.196,7.46 -0.017,14.93 -0.078,22.393 0.024,2.633 -0.051,5.273 0.038,7.906 6.398,-0.008 12.804,0.049 19.198,-0.207 1.886,-0.198 4.165,-0.11 5.541,-1.475 0.594,-0.493 1.082,-1.237 1.967,-1.356 0.688,-0.125 1.228,0.494 1.255,1.049 0.047,0.658 -0.122,1.306 -0.241,1.952 -0.885,4.004 -0.982,8.102 -1.258,12.158 -0.075,0.746 -0.783,1.618 -1.743,1.281 -1.284,-0.358 -0.912,-1.759 -1.048,-2.658 -0.111,-1.379 -0.45,-2.882 -1.59,-3.909 -1.468,-1.177 -3.533,-1.428 -5.433,-1.563 -5.544,-0.305 -11.095,-0.413 -16.646,-0.478 -0.074,8.219 -0.037,16.441 -0.078,24.661 0.156,2.93 -0.298,6.138 1.533,8.755 1.732,1.927 4.812,2.046 7.385,2.266 4.438,0.139 8.922,0.244 13.326,-0.387 2.089,-0.318 4.266,-1.058 5.568,-2.604 1.187,-1.432 1.698,-3.185 2.067,-4.896 0.163,-0.672 0.259,-1.404 0.764,-1.968 0.417,-0.528 1.488,-0.576 1.885,0.008 0.489,0.657 0.356,1.498 0.34,2.248 -0.303,2.835 -0.716,5.663 -1.238,8.474 -0.271,1.16 -0.521,2.39 -1.376,3.344 -0.93,0.963 -2.479,1.027 -3.809,1.064 -9.514,0.064 -19.029,-0.108 -28.53,-0.495 -4.743,-0.258 -9.484,0.196 -14.225,0.189 -1.078,-0.044 -2.316,0.18 -3.207,-0.461 -0.788,-0.543 -0.392,-1.817 0.616,-1.919 1.567,-0.237 3.231,-0.152 4.72,-0.726 1.123,-0.502 1.516,-1.648 1.818,-2.638 0.789,-2.903 0.807,-5.908 0.973,-8.871 0.221,-7.731 0.109,-15.469 0.136,-23.2 -0.007,-9.054 0.007,-18.107 -0.003,-27.161 -0.034,-2.852 -0.027,-5.705 -0.33,-8.545 -0.158,-1.387 -0.647,-2.941 -2.095,-3.713 -2.034,-1.099 -4.507,-1.046 -6.799,-1.193 -0.817,-0.029 -1.465,-0.767 -1.196,-1.453 0.247,-0.761 1.305,-0.959 2.105,-0.958 4.642,-0.044 9.28,0.177 13.923,0.275 8.856,-0.005 17.71,0.037 26.563,-0.061 1.943,-0.058 3.91,-0.114 5.816,-0.473 z"
         id="path112" />
      <path
         style="clip-rule:evenodd;fill:#010101;fill-rule:evenodd"
         inkscape:connector-curvature="0"
         d="m 347.805,24.945 c 0.642,-0.197 1.585,-0.682 2.064,0.032 0.569,1.075 -0.01,2.275 -0.204,3.374 -0.741,3.148 -0.568,6.394 -0.993,9.578 -0.129,0.778 -0.478,1.853 -1.518,1.853 -1,-0.063 -1.387,-1.068 -1.353,-1.863 -0.079,-1.917 -0.276,-4.24 -2.151,-5.426 -2.048,-1.175 -4.54,-1.361 -6.88,-1.6 -5.03,-0.215 -10.067,-0.222 -15.098,-0.29 -0.119,10.166 -0.031,20.336 -0.044,30.504 5.385,0.035 10.77,0.01 16.149,-0.112 2.081,-0.105 4.241,-0.081 6.214,-0.766 1.367,-0.446 1.875,-2.279 3.471,-2.182 1.147,0.497 0.745,1.87 0.604,2.779 -0.911,4.199 -0.932,8.498 -1.285,12.75 -0.063,1.153 -1.838,1.573 -2.375,0.502 -0.477,-1.444 -0.069,-3.052 -0.763,-4.47 -0.499,-1.59 -2.162,-2.539 -3.828,-2.841 -2.435,-0.465 -4.938,-0.421 -7.404,-0.55 -3.603,-0.091 -7.207,-0.254 -10.808,-0.189 0.068,8.314 -0.054,16.636 -0.025,24.953 0.071,2.652 -0.147,5.456 1.016,7.944 0.741,1.676 2.725,2.408 4.518,2.689 3.83,0.586 7.738,0.428 11.604,0.343 2.782,-0.231 5.837,-0.313 8.152,-1.954 1.594,-1.111 2.309,-2.919 2.795,-4.645 0.3,-1.024 0.342,-2.116 0.827,-3.093 0.348,-0.678 1.611,-0.973 2.048,-0.224 0.503,0.807 0.329,1.787 0.273,2.672 -0.326,2.862 -0.71,5.724 -1.223,8.559 -0.244,1.136 -0.554,2.367 -1.483,3.201 -1.072,0.871 -2.593,0.816 -3.923,0.874 -8.441,0.027 -16.885,-0.122 -25.314,-0.494 -5.419,-0.366 -10.837,0.22 -16.259,0.132 -0.829,0.018 -1.998,-0.292 -2.023,-1.221 -0.122,-0.594 0.405,-1.136 1.032,-1.197 1.684,-0.277 3.678,-0.051 5.061,-1.149 1.305,-1.546 1.389,-3.624 1.689,-5.489 0.547,-6.271 0.434,-12.566 0.469,-18.854 -0.014,-13.041 0.012,-26.077 -0.01,-39.115 -0.071,-2.557 -0.041,-5.125 -0.381,-7.667 -0.193,-1.368 -0.892,-2.799 -2.311,-3.403 -1.916,-0.91 -4.12,-0.833 -6.202,-1 -0.946,-0.062 -1.439,-1.25 -0.783,-1.875 0.561,-0.564 1.443,-0.583 2.214,-0.591 4.271,-0.009 8.542,0.191 12.814,0.296 8.345,-0.006 16.693,0.034 25.038,-0.061 2.197,-0.106 4.479,-0.048 6.589,-0.714 z"
         id="path114" />
      <path
         style="clip-rule:evenodd;fill:#010101;fill-rule:evenodd"
         inkscape:connector-curvature="0"
         d="m 509.44,26.147 c 0.102,-0.858 1.109,-1.153 1.861,-1.149 4.297,-0.059 8.586,0.193 12.882,0.278 3.5,-0.074 6.999,-0.292 10.502,-0.308 0.631,0.027 1.346,0.054 1.865,0.488 0.627,0.478 0.44,1.671 -0.356,1.882 -1.821,0.436 -4.008,0.115 -5.47,1.483 -1.471,1.597 -1.322,3.926 -1.484,5.931 -0.245,8.053 -0.133,16.115 -0.156,24.175 15.492,0.005 30.981,0.003 46.472,0.003 -0.027,-7.861 0.088,-15.723 -0.129,-23.578 -0.207,-2.136 0.071,-4.688 -1.598,-6.341 -1.79,-1.457 -4.271,-1.409 -6.466,-1.538 -0.726,0.025 -1.381,-0.605 -1.285,-1.326 0.132,-0.844 1.112,-1.149 1.868,-1.149 4.093,-0.017 8.183,0.178 12.271,0.281 3.604,-0.037 7.202,-0.278 10.811,-0.298 0.793,0.012 1.732,-0.012 2.315,0.629 0.506,0.609 0.122,1.653 -0.664,1.801 -1.74,0.3 -3.754,0.11 -5.188,1.299 -1.417,1.32 -1.414,3.396 -1.563,5.174 -0.314,7.269 -0.146,14.547 -0.193,21.82 0,8.513 0,17.024 0,25.535 0.081,5.938 -0.044,11.896 0.604,17.799 0.204,1.713 0.594,3.794 2.357,4.612 2.261,0.857 4.794,0.45 7.093,1.047 0.614,0.363 0.654,1.302 0.133,1.764 -0.624,0.522 -1.499,0.495 -2.262,0.516 -3.319,-0.041 -6.64,-0.105 -9.959,-0.225 -4.652,-0.298 -9.308,0.296 -13.964,0.218 -0.664,-0.014 -1.421,-0.133 -1.827,-0.695 -0.428,-0.61 -0.119,-1.57 0.645,-1.727 1.42,-0.236 2.915,-0.163 4.269,-0.722 1.048,-0.479 1.424,-1.658 1.716,-2.669 0.719,-2.997 0.739,-6.104 0.885,-9.168 0.214,-9.325 0.119,-18.656 0.129,-27.987 -15.489,-0.021 -30.976,-0.017 -46.465,-0.003 -0.003,8.812 -0.055,17.624 0.105,26.437 0.099,3.249 0.156,6.518 0.675,9.735 0.23,1.438 0.901,3.031 2.403,3.57 2.103,0.638 4.341,0.502 6.501,0.786 1.059,0.156 1.163,1.761 0.203,2.14 -1.362,0.539 -2.869,0.222 -4.293,0.269 -4.861,0.027 -9.714,-0.481 -14.57,-0.146 -2.529,0.058 -5.063,0.277 -7.585,0.132 -0.892,-0.014 -1.76,-0.861 -1.363,-1.757 0.384,-0.851 1.476,-0.678 2.245,-0.786 1.42,-0.155 3.262,-0.237 3.933,-1.723 0.954,-2.109 1.071,-4.469 1.258,-6.74 0.451,-8.233 0.259,-16.479 0.303,-24.72 0,-8.512 0,-17.024 0.003,-25.535 -0.026,-4.207 0.061,-8.418 -0.24,-12.616 -0.146,-1.532 -0.394,-3.338 -1.784,-4.289 -1.811,-1.17 -4.065,-1.194 -6.147,-1.292 -0.712,0.009 -1.424,-0.574 -1.296,-1.317 z"
         id="path116" />
      <path
         style="clip-rule:evenodd;fill:#010101;fill-rule:evenodd"
         inkscape:connector-curvature="0"
         d="m 600.254,25.783 c 0.444,-0.709 1.435,-0.802 2.235,-0.807 4.231,0.034 8.464,0.165 12.691,0.31 7.609,-0.058 15.266,-0.775 22.845,0.209 4.686,0.591 9.345,2.039 13.126,4.745 4.255,3.301 7.106,8.194 7.517,13.353 0.234,5.134 -1.133,10.315 -3.899,14.764 -2.539,4.225 -6.019,7.891 -9.786,11.203 6.891,8.213 13.669,16.521 21.034,24.377 3.092,3.285 6.452,6.5 10.688,8.501 3.108,1.519 6.646,1.997 10.117,2.037 1.078,-0.118 2.052,1.19 1.126,1.944 -1.221,0.785 -2.828,0.468 -4.225,0.542 -5.334,-0.115 -10.773,0.396 -16.008,-0.801 -5.29,-1.369 -9.149,-5.248 -12.485,-9.083 -6.386,-7.512 -12.462,-15.246 -18.497,-23.001 -0.516,-0.651 -1.085,-1.513 -2.093,-1.403 -4.724,-0.048 -9.45,-0.19 -14.174,-0.174 -0.04,6.663 -0.017,13.326 0.152,19.986 0.112,2.661 0.177,5.347 0.716,7.972 0.292,1.366 1.038,2.868 2.584,3.323 2.248,0.609 4.632,0.458 6.932,0.793 0.959,0.258 1.033,1.621 0.162,2.034 -1.079,0.516 -2.339,0.319 -3.496,0.34 -4.12,-0.034 -8.229,-0.177 -12.343,-0.285 -3.706,0.115 -7.412,0.289 -11.115,0.299 -0.59,-0.017 -1.214,-0.055 -1.686,-0.394 -0.796,-0.435 -0.657,-1.702 0.225,-1.974 1.682,-0.386 3.604,-0.102 5.124,-1.01 1.301,-1.116 1.454,-2.9 1.766,-4.422 0.691,-5.186 0.519,-10.424 0.645,-15.636 0.017,-13.193 0.003,-26.393 0.007,-39.586 -0.092,-3.75 0.051,-7.504 -0.285,-11.244 -0.139,-1.435 -0.494,-3.065 -1.858,-3.932 -1.973,-1.238 -4.452,-1.165 -6.721,-1.327 -0.861,-0.031 -1.421,-0.957 -1.021,-1.653 z m 21.868,4.023 c -0.743,0.075 -1.794,0.282 -1.658,1.189 -0.044,11.395 0.007,22.796 -0.021,34.193 -0.01,0.574 -0.007,1.334 0.688,1.585 2.377,0.983 5.021,1.156 7.582,1.417 3.835,0.204 7.968,0.488 11.485,-1.255 3.776,-1.945 5.842,-5.8 6.862,-9.557 1.278,-5.152 1.21,-10.64 -0.414,-15.722 -1.41,-4.483 -4.688,-8.613 -9.352,-10.554 -4.711,-2.084 -10.12,-1.873 -15.172,-1.296 z"
         id="path118" />
      <path
         style="clip-rule:evenodd;fill:#010101;fill-rule:evenodd"
         inkscape:connector-curvature="0"
         d="m 145.489,24.801 c 0.449,-0.839 1.702,-0.868 2.238,-0.097 0.883,1.194 1.278,2.66 1.858,4.013 6.637,17.392 13.164,34.829 19.896,52.186 2.009,5.076 3.82,10.243 6.119,15.2 1.312,2.605 2.823,5.324 5.349,6.904 1.614,0.889 3.465,1.269 5.288,1.332 0.578,0.058 1.261,-0.01 1.724,0.432 0.436,0.491 0.274,1.359 -0.295,1.682 -0.879,0.481 -1.926,0.4 -2.89,0.435 -5.527,-0.041 -11.06,-0.052 -16.582,-0.272 -0.898,-0.102 -1.991,-0.007 -2.657,-0.742 -0.375,-0.79 0.29,-1.435 0.948,-1.732 0.941,-0.512 0.483,-1.784 0.2,-2.577 -3.276,-8.653 -6.412,-17.361 -9.764,-25.983 -7.57,0.003 -15.138,-0.014 -22.705,0.01 -0.617,-0.122 -0.765,0.519 -0.924,0.96 -2.053,6.147 -4.124,12.291 -6.169,18.441 -0.753,2.286 -1.47,4.66 -1.375,7.095 0.23,1.628 2.095,2.214 3.506,2.244 0.837,0.095 2.077,-0.162 2.494,0.808 0.346,1 -0.72,1.736 -1.607,1.716 -2.999,0.092 -5.993,-0.269 -8.994,-0.271 -3.788,0.102 -7.575,0.295 -11.366,0.306 -0.875,-0.011 -1.929,-0.014 -2.52,-0.78 -0.431,-0.773 0.208,-1.743 1.065,-1.71 2.382,-0.155 5.017,-0.165 6.955,-1.803 2.646,-2.19 3.765,-5.602 4.939,-8.722 7.807,-21.596 15.628,-43.191 23.427,-64.792 0.548,-1.454 0.992,-2.974 1.842,-4.283 z m -4.166,27.328 c -1.993,6.188 -3.989,12.376 -5.983,18.566 6.614,0.003 13.229,0.003 19.843,0 -3.428,-9.81 -6.797,-19.643 -10.288,-29.429 -1.307,3.58 -2.368,7.247 -3.572,10.863 z"
         id="path120" />
      <path
         style="clip-rule:evenodd;fill:#010101;fill-rule:evenodd"
         inkscape:connector-curvature="0"
         d="m 207.104,27.371 c 0.141,-1.029 0.385,-2.404 1.553,-2.762 1.221,-0.148 1.929,0.992 2.365,1.922 10.912,21.892 21.795,43.795 32.71,65.689 10.595,-22.058 21.139,-44.139 31.738,-66.191 0.405,-0.99 1.706,-1.958 2.719,-1.104 0.804,0.895 0.795,2.187 0.977,3.308 2.253,20.15 4.506,40.301 6.759,60.451 0.458,3.418 0.529,6.92 1.616,10.223 0.634,1.946 1.833,3.902 3.835,4.737 2.445,0.949 5.113,1.122 7.717,1.214 0.91,-0.095 1.446,1.064 0.856,1.705 -0.817,0.876 -2.154,0.767 -3.257,0.783 -6.012,-0.148 -12.032,-0.25 -18.032,-0.698 -0.996,-0.162 -2.458,-0.136 -2.903,-1.214 -0.353,-0.779 0.424,-1.35 1.062,-1.628 0.308,-1.498 0.059,-3.024 -0.069,-4.522 -1.657,-17.354 -3.306,-34.709 -4.961,-52.065 -9.254,19.112 -18.421,38.264 -27.693,57.368 -0.576,0.963 -1.027,2.51 -2.394,2.55 -1.182,-0.061 -1.665,-1.322 -2.216,-2.149 -4.21,-7.612 -8.069,-15.398 -12.068,-23.112 -4.454,-8.688 -8.528,-17.55 -12.734,-26.35 -1.121,-2.467 -2.338,-4.886 -3.435,-7.36 -1.195,13.43 -2.363,26.864 -3.55,40.295 -0.351,4.381 -0.941,8.759 -0.748,13.16 0.029,1.088 0.771,2.105 1.821,2.476 1.6,0.56 3.316,0.606 4.989,0.796 0.806,0.051 1.207,1.042 0.773,1.672 -0.448,0.607 -1.263,0.764 -1.979,0.777 -4.5,0.095 -8.998,-0.495 -13.496,-0.204 -2.105,0.054 -4.209,0.265 -6.315,0.19 -0.824,-0.021 -1.972,-0.288 -2.077,-1.248 -0.168,-0.658 0.533,-1.188 1.151,-1.2 1.797,-0.197 3.895,0.007 5.343,-1.255 1.433,-1.462 1.688,-3.588 1.934,-5.507 2.675,-23.58 5.341,-47.163 8.009,-70.747 z"
         id="path122" />
      <path
         style="clip-rule:evenodd;fill:#010101;fill-rule:evenodd"
         inkscape:connector-curvature="0"
         d="m 448.648,42.979 c 0.361,-0.103 0.826,-0.346 1.173,-0.039 0.734,0.651 0.25,1.653 0.129,2.455 -0.476,1.897 -0.203,3.886 -0.641,5.789 -0.098,0.744 -1.181,1.246 -1.687,0.549 -0.538,-1.119 -0.251,-2.572 -1.207,-3.521 -1.163,-1.029 -2.83,-1.217 -4.346,-1.241 -3.081,-0.041 -7.738,-0.125 -10.816,-0.149 0,6.389 0.005,13.749 0.005,20.135 3.989,-0.041 7.158,-0.027 11.149,-0.078 0.861,-0.021 1.74,-0.051 2.587,-0.261 0.873,-0.184 1.222,-1.088 1.957,-1.498 0.978,-0.241 1.283,0.888 1.049,1.587 -0.568,2.59 -0.561,5.245 -0.77,7.866 -0.019,0.807 -1.202,1.177 -1.677,0.509 -0.521,-1.14 -0.156,-2.604 -1.121,-3.567 -0.961,-1.021 -2.492,-1.159 -3.84,-1.193 -3.388,-0.092 -5.953,-0.109 -9.34,-0.13 0.012,6.605 -0.039,12.238 0.164,18.84 0.08,1.529 0.025,3.127 0.648,4.571 0.582,1.156 2.117,1.055 3.258,1.201 0.721,0.128 1.769,-0.13 2.172,0.644 0.232,0.62 -0.322,1.24 -0.971,1.274 -3.744,0.211 -7.492,-0.291 -11.236,-0.034 -1.421,0.034 -2.845,0.156 -4.255,0.038 -0.854,0.027 -1.39,-1.177 -0.627,-1.645 1.049,-0.502 2.646,0.023 3.362,-1.092 0.732,-1.539 0.71,-3.289 0.793,-4.951 0.225,-7.364 0.125,-14.729 0.149,-22.098 -0.023,-6.022 0.059,-12.046 -0.095,-18.065 -0.104,-1.032 -0.029,-2.346 -1.046,-2.999 -1.16,-0.836 -2.696,-0.48 -4.005,-0.827 -0.787,-0.314 -0.56,-1.542 0.259,-1.66 1.095,-0.183 2.218,-0.064 3.33,-0.074 6.179,0.225 13.938,0.108 20.125,0.124 1.785,-0.11 3.66,0.161 5.371,-0.46 z"
         id="path124" />
      <path
         style="clip-rule:evenodd;fill:#010101;fill-rule:evenodd"
         inkscape:connector-curvature="0"
         d="m 390.001,44.183 c 6.58,-0.697 13.542,0.486 19.113,4.354 3.808,2.587 6.773,6.446 8.443,10.842 2.02,5.217 2.262,11.049 1.294,16.542 -1.075,6.069 -4.084,11.824 -8.655,15.794 -4.452,3.964 -10.281,6.073 -16.105,6.253 -5.737,0.207 -11.689,-1.152 -16.393,-4.699 -4.515,-3.289 -7.667,-8.348 -9.184,-13.828 -2.085,-7.141 -1.339,-15.111 2.112,-21.661 2.079,-4.144 5.207,-7.741 9.084,-10.124 3.118,-1.956 6.683,-3.054 10.291,-3.473 z m 4.785,4.2 v 45.035 c 1.004,-0.033 1.998,-0.142 2.967,-0.305 V 48.922 c -0.953,-0.244 -1.943,-0.428 -2.967,-0.539 z m -2.816,44.96 V 48.259 c -1.022,0.022 -2.013,0.119 -2.967,0.29 v 44.304 c 0.976,0.236 1.972,0.399 2.967,0.49 z m -5.783,-1.41 v -42.64 c -6.066,2.165 -10.242,7.56 -11.235,14.895 -0.701,5.138 -0.351,10.476 1.248,15.402 1.402,4.438 3.864,8.863 7.741,11.207 0.722,0.437 1.473,0.811 2.246,1.136 z m 14.382,-42.057 v 42.559 c 2.585,-0.808 4.852,-2.079 6.459,-3.689 3.442,-4.015 4.768,-9.512 5.012,-14.777 0.348,-6.559 -0.817,-13.518 -4.657,-18.882 -1.509,-2.111 -3.881,-3.966 -6.814,-5.211 z"
         id="path126" />
    </g>
    <text
       xml:space="preserve"
       style="font-style:normal;font-weight:normal;font-size:10.58333302px;line-height:1.25;font-family:sans-serif;letter-spacing:0px;word-spacing:0px;fill:#000000;fill-opacity:1;stroke:none;stroke-width:0.26458332"
       x="13.41742"
       y="44.658337"
       id="text201"><tspan
         sodipodi:role="line"
         id="tspan199"
         x="13.41742"
         y="54.022106"
         style="stroke-width:0.26458332" /></text>
  </g>
  <g
     inkscape:groupmode="layer"
     id="layer2"
     inkscape:label="Title">
    <text
       xml:space="preserve"
       style="font-style:normal;font-weight:normal;font-size:10.44811726px;line-height:1.25;font-family:sans-serif;letter-spacing:0px;word-spacing:0px;fill:#000000;fill-opacity:1;stroke:none;stroke-width:0.2612029"
       x="39.450592"
       y="44.213718"
       id="text214"><tspan
         sodipodi:role="line"
         id="tspan212"
         x="39.450592"
         y="44.213718"
         style="font-style:normal;font-variant:normal;font-weight:normal;font-stretch:normal;font-family:'Game of Thrones';-inkscape-font-specification:'Game of Thrones';stroke-width:0.2612029">Deaths by numbers</tspan></text>
  </g>
</svg>
