<?xml version="1.0" encoding="UTF-8" standalone="no"?>
<!-- Created with Inkscape (http://www.inkscape.org/) -->

<svg
   xmlns:dc="http://purl.org/dc/elements/1.1/"
   xmlns:cc="http://creativecommons.org/ns#"
   xmlns:rdf="http://www.w3.org/1999/02/22-rdf-syntax-ns#"
   xmlns:svg="http://www.w3.org/2000/svg"
   xmlns="http://www.w3.org/2000/svg"
   xmlns:sodipodi="http://sodipodi.sourceforge.net/DTD/sodipodi-0.dtd"
   xmlns:inkscape="http://www.inkscape.org/namespaces/inkscape"
   version="1.1"
   id="svg2"
   xml:space="preserve"
   width="672"
   height="672"
   viewBox="0 0 672 672"
   sodipodi:docname="wykres_mocy.svg"
   inkscape:version="0.92.3 (2405546, 2018-03-11)"><metadata
     id="metadata8"><rdf:RDF><cc:Work
         rdf:about=""><dc:format>image/svg+xml</dc:format><dc:type
           rdf:resource="http://purl.org/dc/dcmitype/StillImage" /><dc:title></dc:title></cc:Work></rdf:RDF></metadata><defs
     id="defs6" /><sodipodi:namedview
     pagecolor="#ffffff"
     bordercolor="#666666"
     borderopacity="1"
     objecttolerance="10"
     gridtolerance="10"
     guidetolerance="10"
     inkscape:pageopacity="0"
     inkscape:pageshadow="2"
     inkscape:window-width="1853"
     inkscape:window-height="1016"
     id="namedview4"
     showgrid="false"
     inkscape:zoom="0.99331667"
     inkscape:cx="489.74538"
     inkscape:cy="323.03035"
     inkscape:window-x="67"
     inkscape:window-y="27"
     inkscape:window-maximized="1"
     inkscape:current-layer="g12" /><g
     id="g10"
     inkscape:groupmode="layer"
     inkscape:label="ink_ext_XXXXXX"
     transform="matrix(1.3333333,0,0,-1.3333333,0,672)"><g
       id="g12"
       transform="scale(0.1)"><path
         d="M 0,0 H 5040 V 5040 H 0 Z"
         style="fill:#ffffff;fill-opacity:1;fill-rule:nonzero;stroke:none"
         id="path14"
         inkscape:connector-curvature="0" /><path
         d="M 0,0 H 5040 V 5040 H 0 Z"
         style="fill:#ffffff;fill-opacity:1;fill-rule:nonzero;stroke:none"
         id="path16"
         inkscape:connector-curvature="0" /><path
         d="M 0,0 H 5040 V 5040 H 0 Z"
         style="fill:none;stroke:#ffffff;stroke-width:10.6697998;stroke-linecap:round;stroke-linejoin:round;stroke-miterlimit:10;stroke-dasharray:none;stroke-opacity:1"
         id="path18"
         inkscape:connector-curvature="0" /><path
         d="M 1467.62,295.59 H 3142.66 V 477.891 H 1467.62 Z"
         style="fill:#ca0020;fill-opacity:1;fill-rule:nonzero;stroke:none"
         id="path20"
         inkscape:connector-curvature="0" /><path
         d="M 3142.66,295.59 H 4817.7 V 477.891 H 3142.66 Z"
         style="fill:#636363;fill-opacity:1;fill-rule:nonzero;stroke:none"
         id="path22"
         inkscape:connector-curvature="0" /><path
         d="m 1467.62,498.172 h 670 v 182.297 h -670 z"
         style="fill:#0571b0;fill-opacity:1;fill-rule:nonzero;stroke:none"
         id="path24"
         inkscape:connector-curvature="0" /><path
         d="M 2137.62,498.172 H 3142.66 V 680.469 H 2137.62 Z"
         style="fill:#ca0020;fill-opacity:1;fill-rule:nonzero;stroke:none"
         id="path26"
         inkscape:connector-curvature="0" /><path
         d="M 3142.66,498.172 H 4817.7 V 680.469 H 3142.66 Z"
         style="fill:#636363;fill-opacity:1;fill-rule:nonzero;stroke:none"
         id="path28"
         inkscape:connector-curvature="0" /><path
         d="M 1467.62,700.75 H 4259.38 V 883.051 H 1467.62 Z"
         style="fill:#0571b0;fill-opacity:1;fill-rule:nonzero;stroke:none"
         id="path30"
         inkscape:connector-curvature="0" /><path
         d="m 4259.34,700.75 h 558.359 V 883.051 H 4259.34 Z"
         style="fill:#636363;fill-opacity:1;fill-rule:nonzero;stroke:none"
         id="path32"
         inkscape:connector-curvature="0" /><path
         d="M 1467.62,903.289 H 3142.66 V 1085.59 H 1467.62 Z"
         style="fill:#0571b0;fill-opacity:1;fill-rule:nonzero;stroke:none"
         id="path34"
         inkscape:connector-curvature="0" /><path
         d="m 3142.66,903.289 h 558.359 V 1085.59 H 3142.66 Z"
         style="fill:#ca0020;fill-opacity:1;fill-rule:nonzero;stroke:none"
         id="path36"
         inkscape:connector-curvature="0" /><path
         d="M 3701.02,903.289 H 4817.7 V 1085.59 H 3701.02 Z"
         style="fill:#636363;fill-opacity:1;fill-rule:nonzero;stroke:none"
         id="path38"
         inkscape:connector-curvature="0" /><path
         d="M 1467.62,1105.86 H 2584.3 v 182.301 H 1467.62 Z"
         style="fill:#0571b0;fill-opacity:1;fill-rule:nonzero;stroke:none"
         id="path40"
         inkscape:connector-curvature="0" /><path
         d="m 2584.3,1105.86 h 1116.68 v 182.301 H 2584.3 Z"
         style="fill:#ca0020;fill-opacity:1;fill-rule:nonzero;stroke:none"
         id="path42"
         inkscape:connector-curvature="0" /><path
         d="M 3701.02,1105.86 H 4817.7 v 182.301 H 3701.02 Z"
         style="fill:#636363;fill-opacity:1;fill-rule:nonzero;stroke:none"
         id="path44"
         inkscape:connector-curvature="0" /><path
         d="M 1467.62,1308.44 H 2584.3 v 182.297 H 1467.62 Z"
         style="fill:#0571b0;fill-opacity:1;fill-rule:nonzero;stroke:none"
         id="path46"
         inkscape:connector-curvature="0" /><path
         d="m 2584.3,1308.44 h 1116.68 v 182.297 H 2584.3 Z"
         style="fill:#ca0020;fill-opacity:1;fill-rule:nonzero;stroke:none"
         id="path48"
         inkscape:connector-curvature="0" /><path
         d="M 3701.02,1308.44 H 4817.7 v 182.297 H 3701.02 Z"
         style="fill:#636363;fill-opacity:1;fill-rule:nonzero;stroke:none"
         id="path50"
         inkscape:connector-curvature="0" /><path
         d="m 1467.62,1510.98 h 2010.04 v 182.301 H 1467.62 Z"
         style="fill:#0571b0;fill-opacity:1;fill-rule:nonzero;stroke:none"
         id="path52"
         inkscape:connector-curvature="0" /><path
         d="M 3477.66,1510.98 H 4817.7 v 182.301 H 3477.66 Z"
         style="fill:#636363;fill-opacity:1;fill-rule:nonzero;stroke:none"
         id="path54"
         inkscape:connector-curvature="0" /><path
         d="M 1467.62,1713.56 H 2584.3 v 182.301 H 1467.62 Z"
         style="fill:#0571b0;fill-opacity:1;fill-rule:nonzero;stroke:none"
         id="path56"
         inkscape:connector-curvature="0" /><path
         d="m 2584.3,1713.56 h 558.359 v 182.301 H 2584.3 Z"
         style="fill:#ca0020;fill-opacity:1;fill-rule:nonzero;stroke:none"
         id="path58"
         inkscape:connector-curvature="0" /><path
         d="M 3142.66,1713.56 H 4817.7 v 182.301 H 3142.66 Z"
         style="fill:#636363;fill-opacity:1;fill-rule:nonzero;stroke:none"
         id="path60"
         inkscape:connector-curvature="0" /><path
         d="m 1467.62,1916.14 h 478.59 v 182.301 h -478.59 z"
         style="fill:#0571b0;fill-opacity:1;fill-rule:nonzero;stroke:none"
         id="path62"
         inkscape:connector-curvature="0" /><path
         d="m 1946.21,1916.14 h 478.59 v 182.301 h -478.59 z"
         style="fill:#ca0020;fill-opacity:1;fill-rule:nonzero;stroke:none"
         id="path64"
         inkscape:connector-curvature="0" /><path
         d="M 2424.77,1916.14 H 4817.7 v 182.301 H 2424.77 Z"
         style="fill:#636363;fill-opacity:1;fill-rule:nonzero;stroke:none"
         id="path66"
         inkscape:connector-curvature="0" /><path
         d="m 1467.62,2118.68 h 1340.04 v 182.301 H 1467.62 Z"
         style="fill:#0571b0;fill-opacity:1;fill-rule:nonzero;stroke:none"
         id="path68"
         inkscape:connector-curvature="0" /><path
         d="M 2807.66,2118.68 H 4147.7 v 182.301 H 2807.66 Z"
         style="fill:#ca0020;fill-opacity:1;fill-rule:nonzero;stroke:none"
         id="path70"
         inkscape:connector-curvature="0" /><path
         d="m 4147.7,2118.68 h 670 v 182.301 h -670 z"
         style="fill:#636363;fill-opacity:1;fill-rule:nonzero;stroke:none"
         id="path72"
         inkscape:connector-curvature="0" /><path
         d="m 1467.62,2321.25 h 1435.74 v 182.301 H 1467.62 Z"
         style="fill:#0571b0;fill-opacity:1;fill-rule:nonzero;stroke:none"
         id="path74"
         inkscape:connector-curvature="0" /><path
         d="m 2903.36,2321.25 h 717.891 v 182.301 H 2903.36 Z"
         style="fill:#ca0020;fill-opacity:1;fill-rule:nonzero;stroke:none"
         id="path76"
         inkscape:connector-curvature="0" /><path
         d="M 3621.25,2321.25 H 4817.7 v 182.301 H 3621.25 Z"
         style="fill:#636363;fill-opacity:1;fill-rule:nonzero;stroke:none"
         id="path78"
         inkscape:connector-curvature="0" /><path
         d="m 1467.62,2523.83 h 1340.04 v 182.297 H 1467.62 Z"
         style="fill:#0571b0;fill-opacity:1;fill-rule:nonzero;stroke:none"
         id="path80"
         inkscape:connector-curvature="0" /><path
         d="m 2807.66,2523.83 h 670 v 182.297 h -670 z"
         style="fill:#ca0020;fill-opacity:1;fill-rule:nonzero;stroke:none"
         id="path82"
         inkscape:connector-curvature="0" /><path
         d="M 3477.66,2523.83 H 4817.7 v 182.297 H 3477.66 Z"
         style="fill:#636363;fill-opacity:1;fill-rule:nonzero;stroke:none"
         id="path84"
         inkscape:connector-curvature="0" /><path
         d="m 1467.62,2726.37 h 2093.79 v 182.301 H 1467.62 Z"
         style="fill:#0571b0;fill-opacity:1;fill-rule:nonzero;stroke:none"
         id="path86"
         inkscape:connector-curvature="0" /><path
         d="m 3561.41,2726.37 h 837.539 v 182.301 H 3561.41 Z"
         style="fill:#ca0020;fill-opacity:1;fill-rule:nonzero;stroke:none"
         id="path88"
         inkscape:connector-curvature="0" /><path
         d="m 4398.95,2726.37 h 418.75 v 182.301 h -418.75 z"
         style="fill:#636363;fill-opacity:1;fill-rule:nonzero;stroke:none"
         id="path90"
         inkscape:connector-curvature="0" /><path
         d="m 1467.62,2928.95 h 1675.04 v 182.301 H 1467.62 Z"
         style="fill:#0571b0;fill-opacity:1;fill-rule:nonzero;stroke:none"
         id="path92"
         inkscape:connector-curvature="0" /><path
         d="m 3142.66,2928.95 h 418.75 v 182.301 h -418.75 z"
         style="fill:#ca0020;fill-opacity:1;fill-rule:nonzero;stroke:none"
         id="path94"
         inkscape:connector-curvature="0" /><path
         d="M 3561.41,2928.95 H 4817.7 v 182.301 H 3561.41 Z"
         style="fill:#636363;fill-opacity:1;fill-rule:nonzero;stroke:none"
         id="path96"
         inkscape:connector-curvature="0" /><path
         d="m 1467.62,3131.53 h 670 v 182.301 h -670 z"
         style="fill:#0571b0;fill-opacity:1;fill-rule:nonzero;stroke:none"
         id="path98"
         inkscape:connector-curvature="0" /><path
         d="m 2137.62,3131.53 h 1005.04 v 182.301 H 2137.62 Z"
         style="fill:#ca0020;fill-opacity:1;fill-rule:nonzero;stroke:none"
         id="path100"
         inkscape:connector-curvature="0" /><path
         d="M 3142.66,3131.53 H 4817.7 v 182.301 H 3142.66 Z"
         style="fill:#636363;fill-opacity:1;fill-rule:nonzero;stroke:none"
         id="path102"
         inkscape:connector-curvature="0" /><path
         d="m 1467.62,3334.07 h 1675.04 v 182.301 H 1467.62 Z"
         style="fill:#0571b0;fill-opacity:1;fill-rule:nonzero;stroke:none"
         id="path104"
         inkscape:connector-curvature="0" /><path
         d="m 3142.66,3334.07 h 558.359 v 182.301 H 3142.66 Z"
         style="fill:#ca0020;fill-opacity:1;fill-rule:nonzero;stroke:none"
         id="path106"
         inkscape:connector-curvature="0" /><path
         d="M 3701.02,3334.07 H 4817.7 v 182.301 H 3701.02 Z"
         style="fill:#636363;fill-opacity:1;fill-rule:nonzero;stroke:none"
         id="path108"
         inkscape:connector-curvature="0" /><path
         d="m 1467.62,3536.65 h 670 v 182.301 h -670 z"
         style="fill:#0571b0;fill-opacity:1;fill-rule:nonzero;stroke:none"
         id="path110"
         inkscape:connector-curvature="0" /><path
         d="m 2137.62,3536.65 h 1005.04 v 182.301 H 2137.62 Z"
         style="fill:#ca0020;fill-opacity:1;fill-rule:nonzero;stroke:none"
         id="path112"
         inkscape:connector-curvature="0" /><path
         d="M 3142.66,3536.65 H 4817.7 v 182.301 H 3142.66 Z"
         style="fill:#636363;fill-opacity:1;fill-rule:nonzero;stroke:none"
         id="path114"
         inkscape:connector-curvature="0" /><path
         d="m 1467.62,3739.22 h 957.188 v 182.301 H 1467.62 Z"
         style="fill:#0571b0;fill-opacity:1;fill-rule:nonzero;stroke:none"
         id="path116"
         inkscape:connector-curvature="0" /><path
         d="m 2424.77,3739.22 h 1675.04 v 182.301 H 2424.77 Z"
         style="fill:#ca0020;fill-opacity:1;fill-rule:nonzero;stroke:none"
         id="path118"
         inkscape:connector-curvature="0" /><path
         d="m 4099.84,3739.22 h 717.891 v 182.301 H 4099.84 Z"
         style="fill:#636363;fill-opacity:1;fill-rule:nonzero;stroke:none"
         id="path120"
         inkscape:connector-curvature="0" /><path
         d="m 1467.62,3941.76 h 837.539 v 182.297 H 1467.62 Z"
         style="fill:#0571b0;fill-opacity:1;fill-rule:nonzero;stroke:none"
         id="path122"
         inkscape:connector-curvature="0" /><path
         d="m 2305.12,3941.76 h 558.359 v 182.297 H 2305.12 Z"
         style="fill:#ca0020;fill-opacity:1;fill-rule:nonzero;stroke:none"
         id="path124"
         inkscape:connector-curvature="0" /><path
         d="M 2863.48,3941.76 H 4817.7 v 182.297 H 2863.48 Z"
         style="fill:#636363;fill-opacity:1;fill-rule:nonzero;stroke:none"
         id="path126"
         inkscape:connector-curvature="0" /><path
         d="M 1467.62,4144.34 H 2584.3 v 182.301 H 1467.62 Z"
         style="fill:#ca0020;fill-opacity:1;fill-rule:nonzero;stroke:none"
         id="path128"
         inkscape:connector-curvature="0" /><path
         d="m 2584.3,4144.34 h 2233.4 v 182.301 H 2584.3 Z"
         style="fill:#636363;fill-opacity:1;fill-rule:nonzero;stroke:none"
         id="path130"
         inkscape:connector-curvature="0" /><g
         id="g132"
         transform="scale(10)"><text
           transform="matrix(1,0,0,-1,287.734,34.7148)"
           style="font-variant:normal;font-weight:normal;font-size:11.03969955px;font-family:Helvetica;-inkscape-font-specification:Helvetica;writing-mode:lr-tb;fill:#000000;fill-opacity:1;fill-rule:nonzero;stroke:none"
           id="text174"><tspan
             x="0 6.138073 12.276146 167.49875 173.63681 179.77489"
             y="0"
             sodipodi:role="line"
             id="tspan134">50%50%</tspan><tspan
             x="-100.504 -94.365929 -88.227852 -0.0096108997 6.1284623 12.266536 167.49466 173.63272 179.7708"
             y="-20.257799"
             sodipodi:role="line"
             id="tspan136">20%30%50%</tspan><tspan
             x="111.668 117.80608 123.94415 167.49588 173.63394 179.77202"
             y="-40.5117"
             sodipodi:role="line"
             id="tspan138">83%17%</tspan><tspan
             x="0 6.138073 12.276146 55.827873 61.965946 68.104019 167.49411 173.63219 179.77025"
             y="-60.769501"
             sodipodi:role="line"
             id="tspan140">50%17%33%</tspan><tspan
             x="-55.835899 -49.697826 -43.559753 55.830776 61.968849 68.106926 167.49435 173.63243 179.77051"
             y="-81.027298"
             sodipodi:role="line"
             id="tspan142">33%33%33%</tspan><tspan
             x="-55.835899 -49.697826 -43.559753 55.830776 61.968849 68.106926 167.49435 173.63243 179.77051"
             y="-101.2812"
             sodipodi:role="line"
             id="tspan144">33%33%33%</tspan><tspan
             x="33.5 39.638073 45.776146 167.49878 173.63684 179.77492"
             y="-121.539"
             sodipodi:role="line"
             id="tspan146">60%40%</tspan><tspan
             x="-55.835899 -49.697826 -43.559753 -0.0080266995 6.1300464 12.26812 167.49403 173.6321 179.77017"
             y="-141.7968"
             sodipodi:role="line"
             id="tspan148">33%17%50%</tspan><tspan
             x="-119.6445 -113.50642 -107.36835 -71.798332 -65.660255 -59.522182 167.50349 173.64157 179.77965"
             y="-162.0507"
             sodipodi:role="line"
             id="tspan150">14%14%71%</tspan><tspan
             x="-33.5005 -27.362427 -21.224354 100.49828 106.63634 112.77442 167.49843 173.63651 179.77458"
             y="-182.3085"
             sodipodi:role="line"
             id="tspan152">40%40%20%</tspan><tspan
             x="-23.930189 -17.792116 -11.654043 47.850048 53.988125 60.126198 167.49368 173.63176 179.76982"
             y="-202.5663"
             sodipodi:role="line"
             id="tspan154">43%21%36%</tspan><tspan
             x="-33.5005 -27.362427 -21.224354 33.49966 39.637733 45.775806 167.49402 173.6321 179.77017"
             y="-222.82021"
             sodipodi:role="line"
             id="tspan156">40%20%40%</tspan><tspan
             x="41.8745 48.012573 54.150646 125.62155 131.75963 137.89771 167.49503 173.6331 179.77118"
             y="-243.078"
             sodipodi:role="line"
             id="tspan158">62%25%12%</tspan><tspan
             x="-0.00050000002 6.1375732 12.275646 41.872971 48.011044 54.149117 167.49361 173.63168 179.76976"
             y="-263.33578"
             sodipodi:role="line"
             id="tspan160">50%12%38%</tspan><tspan
             x="-100.5045 -94.366425 -88.228355 -0.0101109 6.1279621 12.266035 167.49416 173.63223 179.77029"
             y="-283.58969"
             sodipodi:role="line"
             id="tspan162">20%30%50%</tspan><tspan
             x="-0.00050000002 6.1375732 12.275646 55.827374 61.965446 68.103523 167.49361 173.63168 179.76976"
             y="-303.8475"
             sodipodi:role="line"
             id="tspan164">50%17%33%</tspan><tspan
             x="-100.5045 -94.366425 -88.228355 -0.0101109 6.1279621 12.266035 167.49416 173.63223 179.77029"
             y="-324.10141"
             sodipodi:role="line"
             id="tspan166">20%30%50%</tspan><tspan
             x="-71.789703 -65.651627 -59.513554 95.713463 101.85153 107.98961 167.4937 173.63177 179.76985"
             y="-344.35919"
             sodipodi:role="line"
             id="tspan168">29%50%21%</tspan><tspan
             x="-83.754501 -77.616425 -71.478355 -27.926626 -21.788553 -15.65048 167.49373 173.63181 179.76987"
             y="-364.617"
             sodipodi:role="line"
             id="tspan170">25%17%58%</tspan><tspan
             x="-55.836498 -49.698425 -43.560352 167.50349 173.64157 179.77965"
             y="-384.87091"
             sodipodi:role="line"
             id="tspan172">33%67%</tspan></text>
<text
           transform="matrix(1,0,0,-1,74.3585,33.6517)"
           style="font-variant:normal;font-weight:normal;font-size:14px;font-family:Helvetica;-inkscape-font-specification:Helvetica;writing-mode:lr-tb;fill:#000000;fill-opacity:1;fill-rule:nonzero;stroke:none"
           id="text216"><tspan
             x="0 9.3380003 17.122 21.014 25.676001 37.338001 45.122002"
             y="0"
             sodipodi:role="line"
             id="tspan176">Ant-Man</tspan><tspan
             x="24.9023 35.0103 42.7943 45.902302"
             y="-20.257799"
             sodipodi:role="line"
             id="tspan178">Hulk</tspan><tspan
             x="-20.226601 -10.8886 -6.2266002 1.5574 5.4493999 13.2334 20.2334 27.2334 35.017399 39.679401 43.5714"
             y="-40.5117"
             sodipodi:role="line"
             id="tspan180">Professor X</tspan><tspan
             x="-4.6680002 5.4400001 13.224 16.332001 24.115999 31.115999 38.116001 45.900002"
             y="-60.769501"
             sodipodi:role="line"
             id="tspan182">Colossus</tspan><tspan
             x="17.125 30.341 38.125 45.125"
             y="-81.027298"
             sodipodi:role="line"
             id="tspan184">Wasp</tspan><tspan
             x="17.902344 28.010344 35.794346 45.902344"
             y="-101.2812"
             sodipodi:role="line"
             id="tspan186">Hawk</tspan><tspan
             x="15.574214 24.912214 28.804214 36.588215 41.250214"
             y="-121.539"
             sodipodi:role="line"
             id="tspan188">Storm</tspan><tspan
             x="3.117214 13.225214 20.225214 27.225214 30.333214 38.117214 45.901215"
             y="-141.7968"
             sodipodi:role="line"
             id="tspan190">Cyclops</tspan><tspan
             x="17.109413 26.447414 34.231415 42.015415 49.015415"
             y="-162.0507"
             sodipodi:role="line"
             id="tspan192">Beast</tspan><tspan
             x="-49.792885 -45.900887 -38.116886 -31.116886 -28.008886 -21.008886 -17.900887 -10.116886 -7.0088859 0.775114 4.6671138 17.883114 25.667114 37.329113 45.113113"
             y="-182.3085"
             sodipodi:role="line"
             id="tspan194">Invisible Woman</tspan><tspan
             x="14.777414 24.115414 27.223413 34.223415 37.331413 45.115414"
             y="-202.5663"
             sodipodi:role="line"
             id="tspan196">Vision</tspan><tspan
             x="-45.890587 -34.228584 -31.120586 -24.120586 -20.228586 -12.444586 -7.7825861 -3.8905859 4.663414 12.447414 20.231415 24.123413 31.907413 38.907413 42.799416 45.907413"
             y="-222.82021"
             sodipodi:role="line"
             id="tspan198">Mister Fantastic</tspan><tspan
             x="-29.550785 -20.212786 -13.212786 -5.4287858 -0.76678598 2.3412139 10.125214 14.017214 17.909214 31.125214 34.233215 38.125214 45.125214"
             y="-243.078"
             sodipodi:role="line"
             id="tspan200">Scarlet Witch</tspan><tspan
             x="-31.894535 -21.786535 -14.002536 -2.3405361 5.4434638 13.227464 17.119465 25.673464 33.457462 38.119465 45.119465"
             y="-263.33578"
             sodipodi:role="line"
             id="tspan202">Human Torch</tspan><tspan
             x="-9.332036 3.8839641 11.667964 14.775964 21.775965 29.559963 34.221966 37.329964 45.113964"
             y="-283.58969"
             sodipodi:role="line"
             id="tspan204">Wolverine</tspan><tspan
             x="17.890663 26.444664 34.228664 37.336662 45.120663"
             y="-303.8475"
             sodipodi:role="line"
             id="tspan206">Thing</tspan><tspan
             x="24.125044 32.679043 40.463043 48.247044"
             y="-324.10141"
             sodipodi:role="line"
             id="tspan208">Thor</tspan><tspan
             x="-2.339756 1.5522439 6.2142439 13.998244 21.782244 25.674244 37.336243 45.120243"
             y="-344.35919"
             sodipodi:role="line"
             id="tspan210">Iron Man</tspan><tspan
             x="-19.456957 -10.118956 -2.3349559 0.77304399 8.557044 16.341043 21.003044 25.665045 37.327045 45.111046"
             y="-364.617"
             sodipodi:role="line"
             id="tspan212">Spider-Man</tspan><tspan
             x="-50.578056 -40.470055 -32.686054 -24.902056 -21.794056 -17.902056 -10.118056 -2.3340559 1.5579441 10.895944 22.557943 30.341944 35.003944 38.111942 45.111942"
             y="-384.87091"
             sodipodi:role="line"
             id="tspan214">Capitan America</tspan></text>
</g><path
         d="m 1548.24,4466.6 h 3188.87 v 282.379 H 1548.24 Z"
         style="fill:#ffffff;fill-opacity:1;fill-rule:nonzero;stroke:none"
         id="path218"
         inkscape:connector-curvature="0" /><path
         d="m 1603.01,4521.41 h 172.809 v 172.809 H 1603.01 Z"
         style="fill:#f2f2f2;fill-opacity:1;fill-rule:nonzero;stroke:none"
         id="path220"
         inkscape:connector-curvature="0" /><path
         d="m 1603.01,4521.41 h 172.809 v 172.809 H 1603.01 Z"
         style="fill:none;stroke:#ffffff;stroke-width:10.6697998;stroke-linecap:round;stroke-linejoin:round;stroke-miterlimit:10;stroke-dasharray:none;stroke-opacity:1"
         id="path222"
         inkscape:connector-curvature="0" /><path
         d="m 1610.12,4528.52 h 158.629 v 158.629 H 1610.12 Z"
         style="fill:#0571b0;fill-opacity:1;fill-rule:nonzero;stroke:none"
         id="path224"
         inkscape:connector-curvature="0" /><path
         d="m 2602.77,4521.41 h 172.809 v 172.809 H 2602.77 Z"
         style="fill:#f2f2f2;fill-opacity:1;fill-rule:nonzero;stroke:none"
         id="path226"
         inkscape:connector-curvature="0" /><path
         d="m 2602.77,4521.41 h 172.809 v 172.809 H 2602.77 Z"
         style="fill:none;stroke:#ffffff;stroke-width:10.6697998;stroke-linecap:round;stroke-linejoin:round;stroke-miterlimit:10;stroke-dasharray:none;stroke-opacity:1"
         id="path228"
         inkscape:connector-curvature="0" /><path
         d="m 2609.88,4528.52 h 158.633 v 158.629 H 2609.88 Z"
         style="fill:#ca0020;fill-opacity:1;fill-rule:nonzero;stroke:none"
         id="path230"
         inkscape:connector-curvature="0" /><path
         d="m 4171.52,4521.41 h 172.809 v 172.809 H 4171.52 Z"
         style="fill:#f2f2f2;fill-opacity:1;fill-rule:nonzero;stroke:none"
         id="path232"
         inkscape:connector-curvature="0" /><path
         d="m 4171.52,4521.41 h 172.809 v 172.809 H 4171.52 Z"
         style="fill:none;stroke:#ffffff;stroke-width:10.6697998;stroke-linecap:round;stroke-linejoin:round;stroke-miterlimit:10;stroke-dasharray:none;stroke-opacity:1"
         id="path234"
         inkscape:connector-curvature="0" /><path
         d="m 4178.59,4528.52 h 158.629 v 158.629 H 4178.59 Z"
         style="fill:#636363;fill-opacity:1;fill-rule:nonzero;stroke:none"
         id="path236"
         inkscape:connector-curvature="0" /><g
         id="g238"
         transform="scale(10)"><text
           transform="matrix(1,0,0,-1,177.582,455.023)"
           style="font-variant:normal;font-weight:bold;font-size:16px;font-family:Helvetica;-inkscape-font-specification:Helvetica-Bold;writing-mode:lr-tb;fill:#000000;fill-opacity:1;fill-rule:nonzero;stroke:none"
           id="text242"><tspan
             x="0 9.776 18.672001 28.448 33.776001 42.672001 51.568001 60.464001 99.984001 110.656 119.552 124 132.896 142.672 151.56799 160.464 164.912 174.688 179.136 188.032 193.36 197.808 207.584 217.36 256.88 268.43201 277.328 286.224"
             y="0"
             sodipodi:role="line"
             id="tspan240">Fantasy Science Fiction Real</tspan></text>
<text
           xml:space="preserve"
           style="font-style:normal;font-weight:normal;font-size:22.21259117px;line-height:1.25;font-family:sans-serif;letter-spacing:0px;word-spacing:0px;fill:#000000;fill-opacity:1;stroke:none;stroke-width:0.55531478"
           x="-150.75069"
           y="-481.60977"
           id="text3953"
           transform="scale(1,-1)"><tspan
             sodipodi:role="line"
             id="tspan3951"
             x="-150.75069"
             y="-481.60977"
             style="stroke-width:0.55531478">What's the distribution of powers of most popular heroes?</tspan></text>
</g></g></g></svg>